<svg width="390" height="336" viewBox="0 0 390 336" fill="none" xmlns="http://www.w3.org/2000/svg">
<path d="M0 0H390V256C390 300.183 354.183 336 310 336H80C35.8172 336 0 300.183 0 256V0Z" fill="#2C3742"/>
<path d="M103.2 291V262.6H122.12V266.56H107.68V275.04H119.76V278.76H107.68V291H103.2ZM136.275 273.88C134.568 273.907 133.048 274.293 131.715 275.04C130.408 275.787 129.475 276.84 128.915 278.2V291H124.515V270.08H128.595V274.76C129.315 273.32 130.262 272.173 131.435 271.32C132.608 270.44 133.848 269.96 135.155 269.88C135.422 269.88 135.635 269.88 135.795 269.88C135.982 269.88 136.142 269.893 136.275 269.92V273.88ZM148.485 291.4C146.832 291.4 145.352 291.12 144.045 290.56C142.739 289.973 141.605 289.173 140.645 288.16C139.712 287.147 138.992 286 138.485 284.72C137.979 283.413 137.725 282.027 137.725 280.56C137.725 279.093 137.979 277.707 138.485 276.4C138.992 275.093 139.712 273.947 140.645 272.96C141.605 271.947 142.739 271.16 144.045 270.6C145.379 270.013 146.859 269.72 148.485 269.72C150.112 269.72 151.579 270.013 152.885 270.6C154.219 271.16 155.352 271.947 156.285 272.96C157.245 273.947 157.979 275.093 158.485 276.4C158.992 277.707 159.245 279.093 159.245 280.56C159.245 282.027 158.992 283.413 158.485 284.72C157.979 286 157.245 287.147 156.285 288.16C155.352 289.173 154.219 289.973 152.885 290.56C151.579 291.12 150.112 291.4 148.485 291.4ZM142.245 280.6C142.245 281.933 142.525 283.133 143.085 284.2C143.645 285.267 144.392 286.107 145.325 286.72C146.259 287.333 147.312 287.64 148.485 287.64C149.632 287.64 150.672 287.333 151.605 286.72C152.565 286.08 153.325 285.227 153.885 284.16C154.445 283.067 154.725 281.867 154.725 280.56C154.725 279.227 154.445 278.027 153.885 276.96C153.325 275.893 152.565 275.053 151.605 274.44C150.672 273.8 149.632 273.48 148.485 273.48C147.312 273.48 146.259 273.8 145.325 274.44C144.392 275.08 143.645 275.933 143.085 277C142.525 278.04 142.245 279.24 142.245 280.6ZM181.908 291H177.508V279.28C177.508 277.333 177.188 275.907 176.548 275C175.934 274.093 175.014 273.64 173.788 273.64C172.934 273.64 172.081 273.853 171.228 274.28C170.401 274.707 169.654 275.293 168.988 276.04C168.321 276.76 167.841 277.6 167.548 278.56V291H163.148V270.08H167.148V274.28C167.681 273.347 168.374 272.547 169.228 271.88C170.108 271.187 171.094 270.653 172.188 270.28C173.281 269.907 174.441 269.72 175.668 269.72C176.921 269.72 177.948 269.947 178.748 270.4C179.574 270.853 180.214 271.48 180.668 272.28C181.148 273.053 181.468 273.96 181.628 275C181.814 276.013 181.908 277.093 181.908 278.24V291ZM198.499 289.92C198.125 290.107 197.659 290.307 197.099 290.52C196.539 290.733 195.899 290.92 195.179 291.08C194.485 291.24 193.765 291.32 193.019 291.32C192.112 291.32 191.272 291.16 190.499 290.84C189.725 290.52 189.099 290.013 188.619 289.32C188.165 288.6 187.939 287.68 187.939 286.56V273.48H185.179V270.08H187.939V263.2H192.339V270.08H196.899V273.48H192.339V285.16C192.392 285.88 192.619 286.413 193.019 286.76C193.445 287.107 193.965 287.28 194.579 287.28C195.192 287.28 195.779 287.173 196.339 286.96C196.899 286.747 197.312 286.573 197.579 286.44L198.499 289.92ZM201.346 282.04V278.08H213.306V282.04H201.346ZM238.422 287.04V291H218.942V262.6H238.062V266.56H223.422V274.64H236.102V278.36H223.422V287.04H238.422ZM261.088 291H256.688V279.28C256.688 277.333 256.368 275.907 255.728 275C255.114 274.093 254.194 273.64 252.968 273.64C252.114 273.64 251.261 273.853 250.408 274.28C249.581 274.707 248.834 275.293 248.168 276.04C247.501 276.76 247.021 277.6 246.728 278.56V291H242.327V270.08H246.328V274.28C246.861 273.347 247.554 272.547 248.408 271.88C249.288 271.187 250.274 270.653 251.368 270.28C252.461 269.907 253.621 269.72 254.848 269.72C256.101 269.72 257.128 269.947 257.928 270.4C258.754 270.853 259.394 271.48 259.848 272.28C260.328 273.053 260.648 273.96 260.807 275C260.994 276.013 261.088 277.093 261.088 278.24V291ZM264.875 280.56C264.875 278.56 265.275 276.747 266.075 275.12C266.901 273.467 268.021 272.16 269.435 271.2C270.848 270.213 272.475 269.72 274.315 269.72C275.915 269.72 277.355 270.133 278.635 270.96C279.941 271.787 280.955 272.813 281.675 274.04V261.8H286.075V286.04C286.075 286.547 286.168 286.907 286.355 287.12C286.541 287.333 286.848 287.453 287.275 287.48V291C286.448 291.133 285.808 291.2 285.355 291.2C284.528 291.2 283.821 290.96 283.235 290.48C282.675 290 282.381 289.427 282.355 288.76L282.315 287.2C281.515 288.533 280.435 289.573 279.075 290.32C277.715 291.04 276.301 291.4 274.835 291.4C273.395 291.4 272.061 291.12 270.835 290.56C269.635 290 268.581 289.213 267.675 288.2C266.795 287.187 266.101 286.027 265.595 284.72C265.115 283.413 264.875 282.027 264.875 280.56ZM281.675 283.48V278C281.381 277.147 280.901 276.387 280.235 275.72C279.595 275.027 278.861 274.48 278.035 274.08C277.235 273.68 276.435 273.48 275.635 273.48C274.701 273.48 273.848 273.68 273.075 274.08C272.328 274.48 271.675 275.013 271.115 275.68C270.581 276.347 270.168 277.107 269.875 277.96C269.581 278.813 269.435 279.707 269.435 280.64C269.435 281.6 269.595 282.507 269.915 283.36C270.235 284.187 270.688 284.933 271.275 285.6C271.888 286.24 272.581 286.747 273.355 287.12C274.155 287.467 275.021 287.64 275.955 287.64C276.541 287.64 277.128 287.533 277.715 287.32C278.328 287.107 278.901 286.813 279.435 286.44C279.995 286.067 280.461 285.627 280.835 285.12C281.235 284.613 281.515 284.067 281.675 283.48Z" fill="white"/>
<path d="M278.297 151.481H218.82V64.1777H278.297V151.481ZM220.42 149.881H276.697V65.7777H220.42V149.881Z" fill="#EBEBEB"/>
<path d="M249.335 66.1953H247.735V150.68H249.335V66.1953Z" fill="#EBEBEB"/>
<path d="M279.747 67.4121H217.369V69.6401H279.747V67.4121Z" fill="#EBEBEB"/>
<path d="M279.747 69.918H217.369V72.146H279.747V69.918Z" fill="#EBEBEB"/>
<path d="M279.747 72.4258H217.369V74.6538H279.747V72.4258Z" fill="#EBEBEB"/>
<path d="M279.747 74.9316H217.369V77.1596H279.747V74.9316Z" fill="#EBEBEB"/>
<path d="M279.747 77.4395H217.369V79.6675H279.747V77.4395Z" fill="#EBEBEB"/>
<path d="M279.747 79.9453H217.369V82.1733H279.747V79.9453Z" fill="#EBEBEB"/>
<path d="M279.747 82.4512H217.369V84.6792H279.747V82.4512Z" fill="#EBEBEB"/>
<path d="M279.747 84.959H217.369V87.187H279.747V84.959Z" fill="#EBEBEB"/>
<path d="M279.747 87.4648H217.369V89.6928H279.747V87.4648Z" fill="#EBEBEB"/>
<path d="M274.995 66.9609H274.595V118.316H274.995V66.9609Z" fill="#263238"/>
<path d="M275.506 120.179H274.086L274.442 118.139H275.15L275.506 120.179Z" fill="#263238"/>
<path d="M276.437 66.9609H276.037V137.254H276.437V66.9609Z" fill="#263238"/>
<path d="M276.947 138.753H275.527L275.883 136.713H276.591L276.947 138.753Z" fill="#263238"/>
<path d="M282.23 63.8652H214.886V68.5264H282.23V63.8652Z" fill="#DBDBDB"/>
<path d="M121.396 109.619C121.396 109.284 121.441 108.393 121.441 108.013C121.441 106.386 120.861 105.65 119.345 105.605C118.632 105.561 118.208 105.137 118.208 104.535C118.208 103.933 118.632 103.51 119.345 103.465C120.861 103.398 121.441 102.685 121.441 101.035C121.441 100.656 121.396 99.7639 121.396 99.4295C121.396 97.2667 122.31 95.8843 125.766 95.1263C126.458 94.9699 126.992 95.3939 126.992 96.0403C126.992 96.5755 126.636 96.8655 126.368 96.9543C124.206 97.6231 123.893 98.3143 123.893 99.8303C123.893 100.276 123.938 101.012 123.938 101.48C123.938 103.219 123.09 104.067 121.618 104.535C123.112 105.025 123.938 105.85 123.938 107.589C123.938 108.058 123.893 108.793 123.893 109.239C123.893 110.755 124.205 111.447 126.368 112.116C126.636 112.205 126.992 112.495 126.992 113.03C126.992 113.677 126.457 114.1 125.766 113.944C122.31 113.186 121.396 111.804 121.396 109.619Z" fill="#EBEBEB"/>
<path d="M134.462 99.4295C134.462 99.7639 134.417 100.655 134.417 101.035C134.417 102.685 135.019 103.398 136.536 103.465C137.227 103.509 137.65 103.933 137.65 104.535C137.65 105.137 137.226 105.561 136.536 105.605C135.019 105.65 134.417 106.386 134.417 108.013C134.417 108.392 134.462 109.284 134.462 109.619C134.462 111.804 133.548 113.186 130.092 113.944C129.4 114.1 128.866 113.677 128.866 113.03C128.866 112.495 129.222 112.205 129.512 112.116C131.653 111.447 131.965 110.756 131.965 109.239C131.965 108.793 131.92 108.058 131.92 107.589C131.92 105.85 132.768 105.003 134.239 104.535C132.745 104.044 131.92 103.219 131.92 101.48C131.92 101.012 131.965 100.276 131.965 99.8303C131.965 98.3143 131.653 97.6227 129.512 96.9543C129.222 96.8651 128.866 96.5755 128.866 96.0403C128.866 95.3939 129.401 94.9699 130.092 95.1263C133.548 95.8843 134.462 97.2667 134.462 99.4295Z" fill="#EBEBEB"/>
<path d="M180.436 78.4994C180.954 79.039 180.954 79.8482 180.436 80.3674C180.166 80.6162 179.854 80.741 179.522 80.741C179.17 80.741 178.837 80.6166 178.568 80.3674L172.736 74.4526C172.674 74.4318 172.653 74.3902 172.632 74.3282C172.612 74.3074 172.57 74.2866 172.57 74.2866C172.528 74.2242 172.528 74.183 172.507 74.1206C172.466 74.0998 172.445 74.0582 172.445 74.0374C172.424 73.9958 172.424 73.9334 172.404 73.913C172.404 73.8506 172.362 73.8298 172.362 73.809C172.362 73.7466 172.362 73.7054 172.362 73.6638C172.362 73.6222 172.342 73.6014 172.342 73.539C172.342 73.5186 172.362 73.4562 172.362 73.4354C172.362 73.3938 172.362 73.3318 172.362 73.2902C172.362 73.2486 172.404 73.2278 172.404 73.207C172.424 73.1446 172.424 73.1034 172.445 73.041C172.445 73.0202 172.466 73.0202 172.466 72.9994C172.507 72.937 172.528 72.8542 172.569 72.8126C172.569 72.8126 172.569 72.771 172.611 72.771C172.631 72.7294 172.673 72.6674 172.735 72.6258L178.567 66.7114C179.085 66.2134 179.936 66.2134 180.434 66.7114C180.953 67.2302 180.953 68.0606 180.434 68.579L175.516 73.539L180.436 78.4994Z" fill="#EBEBEB"/>
<path d="M185.727 79.1649L190.812 67.0657C191.061 66.4849 191.725 66.2149 192.327 66.4637C192.887 66.6921 193.157 67.3769 192.908 67.9373L187.824 80.0573C187.637 80.4929 187.201 80.7421 186.765 80.7421C186.64 80.7421 186.475 80.7217 186.35 80.6593C185.748 80.4305 185.478 79.7461 185.727 79.1649Z" fill="#EBEBEB"/>
<path d="M202.952 74.2866C202.952 74.2866 202.952 74.3074 202.931 74.3074C202.89 74.3486 202.848 74.411 202.786 74.4526L196.954 80.3674C196.706 80.6162 196.352 80.741 196.021 80.741C195.668 80.741 195.357 80.6166 195.087 80.3674C194.568 79.8482 194.568 79.0394 195.087 78.4994L200.006 73.539L195.087 68.579C194.568 68.0602 194.568 67.2298 195.087 66.7114C195.585 66.2134 196.436 66.2134 196.954 66.7114L202.786 72.6258C202.848 72.6674 202.889 72.7298 202.931 72.771C202.952 72.771 202.952 72.8126 202.952 72.8126C202.993 72.8958 203.035 72.9374 203.056 72.9994C203.056 73.0198 203.077 73.0198 203.077 73.041C203.098 73.1034 203.098 73.1446 203.139 73.2278C203.139 73.2486 203.16 73.2486 203.16 73.2902C203.16 73.3318 203.16 73.3942 203.16 73.4354C203.16 73.4562 203.18 73.5186 203.18 73.539C203.18 73.5598 203.16 73.6222 203.16 73.643C203.16 73.7054 203.16 73.7466 203.16 73.809C203.16 73.8298 203.139 73.8298 203.139 73.8506C203.098 73.9334 203.098 73.9958 203.077 74.0374C203.077 74.0582 203.056 74.0582 203.056 74.0998C203.035 74.1414 202.994 74.2038 202.952 74.2866Z" fill="#EBEBEB"/>
<path d="M195 218.091C239.523 218.091 275.616 215.215 275.616 211.666C275.616 208.117 239.523 205.24 195 205.24C150.477 205.24 114.384 208.117 114.384 211.666C114.384 215.215 150.477 218.091 195 218.091Z" fill="#EBEBEB"/>
<path d="M271.016 203.891H222.568L232.228 147.699H268.456L271.016 203.891Z" fill="#DBDBDB"/>
<path d="M271.016 203.891H266.768L264.384 147.699H268.456L271.016 203.891Z" fill="#A6A6A6"/>
<path d="M111.296 203.893L132.222 203.795L153.148 203.76L195 203.693L236.852 203.76L257.778 203.795L278.704 203.893L257.778 203.991L236.852 204.026L195 204.092L153.148 204.025L132.222 203.99L111.296 203.893Z" fill="#263238"/>
<path d="M156.774 63.8652H117.022V89.2232H156.774V63.8652Z" fill="white"/>
<path d="M157.026 89.4741H116.771V63.6133H157.026V89.4741ZM117.273 88.9717H156.523V64.1161H117.273V88.9717Z" fill="#EBEBEB"/>
<path d="M156.774 63.8652H117.022V68.6608H156.774V63.8652Z" fill="#FFC727"/>
<path d="M157.026 68.9117H116.771V63.6133H157.026V68.9117ZM117.273 68.4089H156.523V64.1161H117.273V68.4089Z" fill="#EBEBEB"/>
<path d="M121.524 66.2966C121.524 66.963 120.983 67.5034 120.317 67.5034C119.65 67.5034 119.11 66.963 119.11 66.2966C119.11 65.6302 119.65 65.0898 120.317 65.0898C120.984 65.0898 121.524 65.6302 121.524 66.2966Z" fill="#A6A6A6"/>
<path d="M126.452 66.2966C126.452 66.963 125.912 67.5034 125.246 67.5034C124.579 67.5034 124.039 66.963 124.039 66.2966C124.039 65.6302 124.579 65.0898 125.246 65.0898C125.912 65.0898 126.452 65.6302 126.452 66.2966Z" fill="#EBEBEB"/>
<path d="M131.381 66.2966C131.381 66.963 130.84 67.5034 130.174 67.5034C129.508 67.5034 128.967 66.963 128.967 66.2966C128.967 65.6302 129.508 65.0898 130.174 65.0898C130.84 65.0898 131.381 65.6302 131.381 66.2966Z" fill="white"/>
<path d="M123.883 78.142C123.896 75.4976 126.114 73.3472 128.784 73.334C129.96 73.334 131.028 73.7212 131.87 74.3756C132.19 74.6428 132.244 75.11 132.004 75.444C131.737 75.778 131.242 75.8316 130.935 75.5908C130.347 75.11 129.613 74.8564 128.784 74.8564C127.863 74.8564 127.008 75.2304 126.38 75.818C125.779 76.4324 125.405 77.234 125.405 78.142C125.405 79.0504 125.779 79.8784 126.38 80.4664C127.008 81.054 127.863 81.428 128.784 81.428C129.613 81.428 130.334 81.1744 130.935 80.6936C131.242 80.4668 131.736 80.52 132.004 80.8404C132.244 81.1744 132.19 81.6552 131.87 81.9088C131.028 82.5632 129.96 82.9504 128.784 82.9504C126.114 82.9504 123.896 80.8004 123.883 78.142Z" fill="#EBEBEB"/>
<path d="M134.301 80.6264C134.541 80.3324 134.982 80.2924 135.276 80.5328C135.864 81.0136 136.879 81.5744 137.827 81.5612C138.495 81.5612 139.096 81.3612 139.497 81.0672C139.897 80.7736 140.071 80.4396 140.071 80.1056C140.071 79.932 140.031 79.8116 139.951 79.6784C139.871 79.5448 139.75 79.4112 139.55 79.2776C139.163 79.0236 138.509 78.7968 137.72 78.6496H137.694C137.066 78.5292 136.478 78.3692 135.971 78.1288C135.464 77.8884 135.022 77.5544 134.729 77.0872C134.528 76.7664 134.422 76.3928 134.422 75.992C134.422 75.1908 134.876 74.496 135.49 74.042C136.118 73.588 136.933 73.334 137.801 73.334C139.083 73.334 140.032 73.962 140.713 74.4024C141.02 74.616 141.113 75.0436 140.9 75.3508C140.699 75.6716 140.272 75.7648 139.951 75.5512C139.27 75.0972 138.616 74.6964 137.801 74.6964C137.2 74.6964 136.665 74.8832 136.305 75.1504C135.945 75.4176 135.798 75.7116 135.798 75.992C135.798 76.1524 135.824 76.2592 135.891 76.366C135.958 76.4732 136.078 76.5932 136.252 76.7136C136.599 76.954 137.2 77.1676 137.921 77.3012H137.948C138.629 77.4348 139.257 77.6084 139.791 77.862C140.339 78.1292 140.819 78.4764 141.126 78.9708C141.327 79.2912 141.447 79.692 141.447 80.106C141.447 80.9608 140.966 81.6956 140.298 82.1764C139.644 82.6572 138.776 82.9376 137.827 82.9376C136.385 82.924 135.17 82.2032 134.408 81.602C134.114 81.3612 134.074 80.9204 134.301 80.6264Z" fill="#EBEBEB"/>
<path d="M143.076 80.6264C143.316 80.3324 143.757 80.2924 144.051 80.5328C144.638 81.0136 145.654 81.5744 146.602 81.5612C147.27 81.5612 147.87 81.3612 148.272 81.0672C148.672 80.7736 148.846 80.4396 148.846 80.1056C148.846 79.932 148.806 79.8116 148.726 79.6784C148.646 79.5448 148.525 79.4112 148.325 79.2776C147.938 79.0236 147.284 78.7968 146.495 78.6496H146.468C145.84 78.5292 145.252 78.3692 144.745 78.1288C144.238 77.8884 143.797 77.5544 143.503 77.0872C143.302 76.7664 143.196 76.3928 143.196 75.992C143.196 75.1908 143.65 74.496 144.264 74.042C144.892 73.588 145.707 73.334 146.575 73.334C147.857 73.334 148.806 73.962 149.487 74.4024C149.794 74.616 149.888 75.0436 149.674 75.3508C149.473 75.6716 149.046 75.7648 148.726 75.5512C148.044 75.0972 147.39 74.6964 146.575 74.6964C145.974 74.6964 145.44 74.8832 145.079 75.1504C144.719 75.4176 144.572 75.7116 144.572 75.992C144.572 76.1524 144.599 76.2592 144.666 76.366C144.732 76.4732 144.852 76.5932 145.026 76.7136C145.373 76.954 145.974 77.1676 146.696 77.3012H146.722C147.404 77.4348 148.031 77.6084 148.566 77.862C149.113 78.1292 149.594 78.4764 149.901 78.9708C150.102 79.2912 150.222 79.692 150.222 80.106C150.222 80.9608 149.741 81.6956 149.073 82.1764C148.418 82.6572 147.55 82.9376 146.602 82.9376C145.16 82.924 143.944 82.2032 143.182 81.602C142.888 81.3612 142.848 80.9204 143.076 80.6264Z" fill="#EBEBEB"/>
<path d="M222.434 136.418H182.681V161.776H222.434V136.418Z" fill="white"/>
<path d="M222.684 162.026H182.43V136.166H222.684V162.026ZM182.932 161.524H222.182V136.668H182.932V161.524Z" fill="#EBEBEB"/>
<path d="M222.434 136.418H182.681V141.214H222.434V136.418Z" fill="#FFC727"/>
<path d="M222.684 141.464H182.43V136.166H222.684V141.464ZM182.932 140.962H222.182V136.669H182.932V140.962Z" fill="#EBEBEB"/>
<path d="M187.183 138.849C187.183 139.516 186.642 140.056 185.975 140.056C185.309 140.056 184.769 139.516 184.769 138.849C184.769 138.183 185.309 137.643 185.975 137.643C186.642 137.643 187.183 138.183 187.183 138.849Z" fill="#A6A6A6"/>
<path d="M192.111 138.849C192.111 139.516 191.571 140.056 190.904 140.056C190.238 140.056 189.698 139.516 189.698 138.849C189.698 138.183 190.238 137.643 190.904 137.643C191.571 137.643 192.111 138.183 192.111 138.849Z" fill="#EBEBEB"/>
<path d="M197.04 138.849C197.04 139.516 196.499 140.056 195.832 140.056C195.166 140.056 194.625 139.516 194.625 138.849C194.625 138.183 195.166 137.643 195.832 137.643C196.499 137.643 197.04 138.183 197.04 138.849Z" fill="white"/>
<path d="M190.103 150.695C190.116 148.05 192.334 145.9 195.005 145.887C196.18 145.887 197.249 146.274 198.09 146.928C198.411 147.196 198.464 147.663 198.224 147.997C197.956 148.331 197.462 148.384 197.155 148.144C196.568 147.663 195.833 147.409 195.005 147.409C194.083 147.409 193.228 147.783 192.601 148.37C192 148.985 191.626 149.786 191.626 150.694C191.626 151.603 192 152.431 192.601 153.019C193.228 153.606 194.083 153.98 195.005 153.98C195.833 153.98 196.554 153.727 197.155 153.246C197.462 153.019 197.956 153.072 198.224 153.392C198.464 153.726 198.411 154.207 198.09 154.461C197.249 155.115 196.18 155.502 195.005 155.502C192.333 155.503 190.116 153.353 190.103 150.695Z" fill="#EBEBEB"/>
<path d="M202.911 151.536H201.015C200.614 151.536 200.28 151.215 200.28 150.801C200.28 150.4 200.614 150.067 201.015 150.067H202.911V148.21C202.911 147.783 203.245 147.449 203.673 147.449C204.087 147.449 204.434 147.783 204.434 148.21V150.067H206.33C206.731 150.067 207.065 150.401 207.065 150.801C207.065 151.215 206.731 151.536 206.33 151.536H204.434V153.392C204.434 153.82 204.087 154.154 203.673 154.154C203.245 154.154 202.911 153.82 202.911 153.392V151.536Z" fill="#EBEBEB"/>
<path d="M211.192 151.536H209.295C208.894 151.536 208.561 151.215 208.561 150.801C208.561 150.4 208.894 150.067 209.295 150.067H211.192V148.21C211.192 147.783 211.525 147.449 211.953 147.449C212.367 147.449 212.714 147.783 212.714 148.21V150.067H214.611C215.011 150.067 215.345 150.401 215.345 150.801C215.345 151.215 215.011 151.536 214.611 151.536H212.714V153.392C212.714 153.82 212.367 154.154 211.953 154.154C211.526 154.154 211.192 153.82 211.192 153.392V151.536Z" fill="#EBEBEB"/>
<path d="M203.892 87.6953H137.596V142.141H203.892V87.6953Z" fill="white"/>
<path d="M204.143 142.391H137.345V87.4434H204.143V142.391ZM137.847 141.889H203.64V87.9462H137.847V141.889Z" fill="#EBEBEB"/>
<path d="M203.892 87.6953H137.596V92.4909H203.892V87.6953Z" fill="#FFC727"/>
<path d="M204.143 92.7414H137.345V87.4434H204.143V92.7414ZM137.847 92.239H203.64V87.9462H137.847V92.239Z" fill="#EBEBEB"/>
<path d="M142.097 90.1267C142.097 90.7935 141.557 91.3335 140.89 91.3335C140.224 91.3335 139.683 90.7931 139.683 90.1267C139.683 89.4603 140.224 88.9199 140.89 88.9199C141.557 88.9195 142.097 89.4599 142.097 90.1267Z" fill="#A6A6A6"/>
<path d="M147.026 90.1267C147.026 90.7935 146.486 91.3335 145.819 91.3335C145.153 91.3335 144.612 90.7931 144.612 90.1267C144.612 89.4603 145.153 88.9199 145.819 88.9199C146.486 88.9195 147.026 89.4599 147.026 90.1267Z" fill="#EBEBEB"/>
<path d="M151.954 90.1267C151.954 90.7935 151.414 91.3335 150.747 91.3335C150.081 91.3335 149.54 90.7931 149.54 90.1267C149.54 89.4603 150.081 88.9199 150.747 88.9199C151.414 88.9195 151.954 89.4599 151.954 90.1267Z" fill="white"/>
<path d="M145.304 102.029H142.74V102.966H145.304V102.029Z" fill="#EBEBEB"/>
<path d="M176.583 102.029H147.173V102.966H176.583V102.029Z" fill="#EBEBEB"/>
<path d="M183.028 102.029H178.158V102.966H183.028V102.029Z" fill="#FFC727"/>
<path d="M194.167 114.562H189.297V115.499H194.167V114.562Z" fill="#EBEBEB"/>
<path d="M192.506 102.029H184.087V102.966H192.506V102.029Z" fill="#A6A6A6"/>
<path d="M147.868 104.535H145.304V105.472H147.868V104.535Z" fill="#EBEBEB"/>
<path d="M168.973 104.535H149.672V105.472H168.973V104.535Z" fill="#A6A6A6"/>
<path d="M188.141 114.562H176.84V115.499H188.141V114.562Z" fill="#A6A6A6"/>
<path d="M165.608 112.055H147.173V112.991H165.608V112.055Z" fill="#A6A6A6"/>
<path d="M162.605 107.043H149.672V107.979H162.605V107.043Z" fill="#FFC727"/>
<path d="M186.348 109.549H181.415V110.485H186.348V109.549Z" fill="#A6A6A6"/>
<path d="M184.693 107.043H164.04V107.979H184.693V107.043Z" fill="#A6A6A6"/>
<path d="M171.826 114.562H147.173V115.499H171.826V114.562Z" fill="#FFC727"/>
<path d="M196.904 104.535H183.544V105.472H196.904V104.535Z" fill="#FFC727"/>
<path d="M182.485 104.535H170.185V105.472H182.485V104.535Z" fill="#EBEBEB"/>
<path d="M193.964 107.043H185.664V107.979H193.964V107.043Z" fill="#EBEBEB"/>
<path d="M147.868 107.043H145.304V107.979H147.868V107.043Z" fill="#EBEBEB"/>
<path d="M145.304 109.549H142.74V110.485H145.304V109.549Z" fill="#A6A6A6"/>
<path d="M162.326 109.549H147.173V110.485H162.326V109.549Z" fill="#EBEBEB"/>
<path d="M164.825 117.068H149.672V118.005H164.825V117.068Z" fill="#EBEBEB"/>
<path d="M189.446 119.574H177.927V120.511H189.446V119.574Z" fill="#FFC727"/>
<path d="M181.25 117.068H166.055V118.005H181.25V117.068Z" fill="#FFC727"/>
<path d="M176.602 119.574H163.375V120.511H176.602V119.574Z" fill="#EBEBEB"/>
<path d="M154.06 119.574H149.672V120.511H154.06V119.574Z" fill="#A6A6A6"/>
<path d="M183.028 112.055H166.651V112.991H183.028V112.055Z" fill="#EBEBEB"/>
<path d="M194.508 112.055H184.087V112.991H194.508V112.055Z" fill="#FFC727"/>
<path d="M180.223 109.549H163.866V110.485H180.223V109.549Z" fill="#FFC727"/>
<path d="M145.304 112.055H142.74V112.991H145.304V112.055Z" fill="#EBEBEB"/>
<path d="M145.304 114.562H142.74V115.499H145.304V114.562Z" fill="#EBEBEB"/>
<path d="M147.868 117.068H145.304V118.005H147.868V117.068Z" fill="#A6A6A6"/>
<path d="M147.868 119.574H145.304V120.511H147.868V119.574Z" fill="#EBEBEB"/>
<path d="M145.304 121.674H142.74V122.61H145.304V121.674Z" fill="#EBEBEB"/>
<path d="M176.583 121.674H147.173V122.61H176.583V121.674Z" fill="#EBEBEB"/>
<path d="M147.868 124.18H145.304V125.116H147.868V124.18Z" fill="#EBEBEB"/>
<path d="M168.973 124.18H149.672V125.116H168.973V124.18Z" fill="#A6A6A6"/>
<path d="M165.608 131.699H147.173V132.636H165.608V131.699Z" fill="#A6A6A6"/>
<path d="M162.605 126.686H149.672V127.622H162.605V126.686Z" fill="#FFC727"/>
<path d="M184.693 126.686H164.04V127.622H184.693V126.686Z" fill="#A6A6A6"/>
<path d="M171.826 134.205H147.173V135.141H171.826V134.205Z" fill="#FFC727"/>
<path d="M196.904 124.18H183.544V125.116H196.904V124.18Z" fill="#FFC727"/>
<path d="M182.485 124.18H170.185V125.116H182.485V124.18Z" fill="#EBEBEB"/>
<path d="M193.964 126.686H185.664V127.622H193.964V126.686Z" fill="#EBEBEB"/>
<path d="M147.868 126.686H145.304V127.622H147.868V126.686Z" fill="#EBEBEB"/>
<path d="M145.304 129.193H142.74V130.13H145.304V129.193Z" fill="#A6A6A6"/>
<path d="M162.326 129.193H147.173V130.13H162.326V129.193Z" fill="#EBEBEB"/>
<path d="M183.028 131.699H166.651V132.636H183.028V131.699Z" fill="#EBEBEB"/>
<path d="M180.223 129.193H163.866V130.13H180.223V129.193Z" fill="#FFC727"/>
<path d="M145.304 131.699H142.74V132.636H145.304V131.699Z" fill="#EBEBEB"/>
<path d="M144.324 99.564C144.412 99.6556 144.412 99.7928 144.324 99.8808C144.278 99.9228 144.226 99.944 144.17 99.944C144.11 99.944 144.053 99.9228 144.008 99.8808L143.019 98.878C143.008 98.8744 143.004 98.8676 143.001 98.8568C142.998 98.8532 142.99 98.8496 142.99 98.8496C142.984 98.8392 142.984 98.832 142.98 98.8216C142.973 98.818 142.969 98.8112 142.969 98.8076C142.966 98.8004 142.966 98.79 142.962 98.7864C142.962 98.776 142.955 98.7724 142.955 98.7688C142.955 98.7584 142.955 98.7512 142.955 98.7444C142.955 98.7372 142.952 98.734 142.952 98.7232C142.952 98.7196 142.955 98.7088 142.955 98.7056C142.955 98.6984 142.955 98.688 142.955 98.6812C142.955 98.674 142.962 98.6708 142.962 98.6668C142.966 98.6564 142.966 98.6492 142.969 98.6384C142.969 98.6348 142.973 98.6348 142.973 98.6316C142.98 98.6212 142.984 98.6068 142.99 98.6C142.99 98.6 142.99 98.5928 142.998 98.5928C143.001 98.5856 143.008 98.5752 143.019 98.5684L144.008 97.5656C144.096 97.4808 144.24 97.4808 144.324 97.5656C144.412 97.6536 144.412 97.7944 144.324 97.8824L143.49 98.7236L144.324 99.564Z" fill="#FFC727"/>
<path d="M145.221 99.6757L146.083 97.6237C146.125 97.5253 146.238 97.4792 146.34 97.5216C146.435 97.56 146.481 97.6765 146.439 97.7713L145.577 99.8265C145.545 99.9005 145.471 99.9424 145.397 99.9424C145.376 99.9424 145.348 99.9389 145.327 99.9285C145.224 99.8905 145.178 99.7745 145.221 99.6757Z" fill="#FFC727"/>
<path d="M148.141 98.8484C148.141 98.8484 148.141 98.852 148.137 98.852C148.13 98.8592 148.123 98.8696 148.112 98.8768L147.123 99.8796C147.081 99.9216 147.021 99.9428 146.965 99.9428C146.905 99.9428 146.852 99.9216 146.807 99.8796C146.718 99.7916 146.718 99.6544 146.807 99.5628L147.64 98.7216L146.807 97.8804C146.718 97.7924 146.718 97.6516 146.807 97.5636C146.891 97.4788 147.036 97.4788 147.123 97.5636L148.112 98.5664C148.123 98.5732 148.13 98.584 148.137 98.5908C148.141 98.5908 148.141 98.598 148.141 98.598C148.148 98.612 148.154 98.6192 148.158 98.6296C148.158 98.6332 148.162 98.6332 148.162 98.6364C148.165 98.6472 148.165 98.654 148.172 98.6684C148.172 98.6716 148.175 98.6716 148.175 98.6788C148.175 98.6856 148.175 98.696 148.175 98.7032C148.175 98.7064 148.179 98.7172 148.179 98.7208C148.179 98.7244 148.175 98.7348 148.175 98.7384C148.175 98.7488 148.175 98.756 148.175 98.7668C148.175 98.7704 148.172 98.7704 148.172 98.774C148.165 98.788 148.165 98.7984 148.162 98.8056C148.162 98.8092 148.158 98.8092 148.158 98.816C148.154 98.824 148.148 98.8348 148.141 98.8484Z" fill="#FFC727"/>
<path d="M211.452 80.0586H184.371V90.0846H211.452V80.0586Z" fill="#455A64"/>
<path d="M188.279 87.1522V82.7054C188.279 82.4718 188.46 82.291 188.693 82.291C188.927 82.291 189.115 82.4718 189.115 82.7054V84.5142H191.067V82.7054C191.067 82.4718 191.249 82.291 191.482 82.291C191.716 82.291 191.904 82.4718 191.904 82.7054V87.1522C191.904 87.3862 191.716 87.567 191.482 87.567C191.249 87.567 191.067 87.3862 191.067 87.1522V85.3434H189.115V87.1522C189.115 87.3862 188.927 87.567 188.693 87.567C188.459 87.567 188.279 87.3862 188.279 87.1522Z" fill="white"/>
<path d="M196.848 83.1278H195.65V87.1522C195.65 87.3862 195.469 87.567 195.235 87.567C195.009 87.567 194.821 87.3862 194.821 87.1522V83.1278H193.63C193.397 83.1278 193.215 82.9318 193.215 82.7054C193.215 82.4718 193.397 82.291 193.63 82.291H196.848C197.075 82.291 197.263 82.4718 197.263 82.7054C197.263 82.9318 197.074 83.1278 196.848 83.1278Z" fill="white"/>
<path d="M203.044 82.7054V87.1522C203.044 87.3786 202.847 87.567 202.622 87.567C202.388 87.567 202.207 87.3786 202.207 87.1522V83.9794L201.121 85.487C201.039 85.5998 200.918 85.6602 200.782 85.6602H200.775H200.767C200.631 85.6602 200.503 85.5998 200.421 85.487L199.343 83.9794V87.1522C199.343 87.3786 199.154 87.567 198.921 87.567C198.694 87.567 198.506 87.3786 198.506 87.1522V82.7054C198.506 82.4794 198.694 82.291 198.921 82.291C198.929 82.291 198.929 82.291 198.943 82.291C199.064 82.291 199.199 82.3514 199.275 82.4642L200.775 84.5446L202.274 82.4642C202.357 82.3514 202.478 82.291 202.613 82.291C202.613 82.291 202.613 82.291 202.621 82.291C202.847 82.2986 203.044 82.4794 203.044 82.7054Z" fill="white"/>
<path d="M204.868 87.1522V82.7054C204.868 82.4794 205.049 82.291 205.282 82.291C205.516 82.291 205.704 82.4794 205.704 82.7054V86.7302H207.747C207.966 86.7302 208.161 86.9186 208.161 87.1522C208.161 87.3786 207.966 87.567 207.747 87.567H205.305C205.29 87.567 205.29 87.567 205.29 87.567C205.282 87.567 205.282 87.567 205.282 87.567C205.049 87.567 204.868 87.3786 204.868 87.1522Z" fill="white"/>
<path d="M139.088 118.367H116.771V128.393H139.088V118.367Z" fill="#455A64"/>
<path d="M123.308 124.146C123.434 124.53 123.797 124.81 124.224 124.81C124.755 124.81 125.188 124.377 125.188 123.853V121.08C125.188 120.863 125.362 120.695 125.579 120.695C125.788 120.695 125.963 120.863 125.963 121.08V123.853C125.963 124.81 125.181 125.585 124.224 125.585C123.455 125.585 122.799 125.082 122.576 124.383C122.506 124.174 122.624 123.957 122.82 123.901C123.029 123.832 123.245 123.943 123.308 124.146Z" fill="white"/>
<path d="M126.935 124.37C127.061 124.216 127.292 124.195 127.445 124.321C127.753 124.573 128.284 124.866 128.78 124.859C129.129 124.859 129.443 124.754 129.653 124.601C129.862 124.447 129.953 124.272 129.953 124.098C129.953 124.007 129.932 123.944 129.89 123.874C129.848 123.805 129.785 123.735 129.68 123.665C129.478 123.532 129.136 123.413 128.723 123.336H128.709C128.381 123.273 128.074 123.19 127.808 123.064C127.543 122.938 127.312 122.764 127.159 122.519C127.054 122.352 126.998 122.156 126.998 121.946C126.998 121.527 127.236 121.164 127.557 120.927C127.886 120.689 128.312 120.557 128.766 120.557C129.437 120.557 129.932 120.885 130.288 121.116C130.449 121.227 130.498 121.451 130.386 121.612C130.282 121.779 130.058 121.828 129.89 121.716C129.534 121.479 129.192 121.269 128.766 121.269C128.452 121.269 128.172 121.367 127.984 121.507C127.795 121.647 127.718 121.8 127.718 121.947C127.718 122.031 127.732 122.087 127.767 122.143C127.802 122.199 127.865 122.262 127.956 122.325C128.137 122.45 128.452 122.562 128.829 122.632H128.843C129.199 122.702 129.527 122.792 129.806 122.925C130.093 123.065 130.345 123.247 130.505 123.505C130.61 123.673 130.672 123.882 130.672 124.099C130.672 124.546 130.421 124.93 130.072 125.181C129.729 125.433 129.275 125.58 128.779 125.58C128.025 125.573 127.389 125.196 126.991 124.881C126.838 124.754 126.817 124.524 126.935 124.37Z" fill="white"/>
<path d="M204.866 117.714L206.56 121.802L204.868 122.502L203.166 118.386L200.371 120.554V109.035L208.434 117.181L204.866 117.714Z" fill="#263238"/>
<path d="M200.371 107.779C200.29 107.586 200.272 107.393 200.269 107.2C200.272 107.007 200.29 106.814 200.371 106.621C200.452 106.814 200.47 107.007 200.474 107.2C200.47 107.393 200.452 107.587 200.371 107.779Z" fill="#263238"/>
<path d="M199.374 108.192C199.18 108.113 199.031 107.989 198.892 107.855C198.757 107.716 198.634 107.567 198.554 107.373C198.748 107.452 198.898 107.576 199.036 107.71C199.17 107.849 199.294 107.999 199.374 108.192Z" fill="#263238"/>
<path d="M198.96 109.19C198.768 109.271 198.574 109.289 198.381 109.293C198.188 109.29 197.995 109.271 197.802 109.19C197.995 109.109 198.188 109.091 198.381 109.088C198.574 109.091 198.767 109.109 198.96 109.19Z" fill="#263238"/>
<path d="M199.374 110.188C199.294 110.381 199.17 110.53 199.036 110.67C198.898 110.804 198.748 110.928 198.554 111.007C198.634 110.813 198.757 110.664 198.892 110.525C199.031 110.39 199.18 110.267 199.374 110.188Z" fill="#263238"/>
<path d="M201.782 109.19C201.975 109.109 202.168 109.091 202.361 109.088C202.554 109.091 202.747 109.109 202.94 109.19C202.747 109.271 202.554 109.29 202.361 109.293C202.168 109.289 201.975 109.271 201.782 109.19Z" fill="#263238"/>
<path d="M201.368 108.192C201.448 107.999 201.572 107.849 201.706 107.71C201.844 107.576 201.994 107.452 202.188 107.373C202.108 107.567 201.985 107.716 201.85 107.855C201.712 107.989 201.562 108.113 201.368 108.192Z" fill="#263238"/>
<path d="M230.746 157.171C227.662 170.602 221.42 187.606 216.596 191.036C212.706 193.803 192.297 198.678 191.159 198.801C188.341 199.085 182.777 179.182 185.698 178.373C189.378 177.354 206.868 176.81 207.864 175.788C208.896 174.72 215.261 166.1 222.468 156.115C227.442 149.215 232.66 148.838 230.746 157.171Z" fill="#DD6A57"/>
<path d="M193.421 197.707C193.085 197.877 188.32 200.274 185.373 201.128C183.174 201.765 176.796 203.43 175.855 201.079C175.21 199.477 178.846 198.056 181.394 196.994C182.736 196.435 184.39 195.03 183.995 194.167C183.303 192.658 179.847 194.174 177.575 195.494C173.18 198.048 167.326 202.644 164.642 200.414C163.628 199.572 164.806 198.037 166.53 196.532C163.733 198.286 160.75 199.724 159.586 198.833C158.918 198.325 158.888 197.628 159.259 196.832C158.396 197.113 157.632 197.058 157.1 196.495C156.191 195.544 156.634 194.139 157.629 192.7C157.31 192.666 157.023 192.504 156.803 192.157C154.878 189.222 164.514 180.794 167.847 180.005C177.652 177.674 188.082 178.524 188.082 178.524C191.933 181.601 193.428 197.7 193.421 197.707Z" fill="#DD6A57"/>
<path d="M179.003 188.682C176.694 189.044 174.421 189.907 172.463 191.2C169.977 192.84 168.328 194.76 166.243 196.694C166.188 196.745 166.265 196.832 166.32 196.781C167.314 195.862 171.432 192.406 172.496 191.621C174.446 190.182 176.624 189.171 179.012 188.722C179.037 188.717 179.028 188.678 179.003 188.682Z" fill="#263238"/>
<path d="M177.176 184.52C174.599 185.225 171.958 185.937 169.566 187.156C166.949 188.49 164.9 190.665 162.886 192.758C161.677 194.014 160.494 195.296 159.343 196.607C159.294 196.662 159.368 196.749 159.42 196.694C161.464 194.532 163.572 192.429 165.744 190.396C167.787 188.484 170.066 187.02 172.683 186.022C174.158 185.46 175.673 185.012 177.185 184.566C177.214 184.557 177.205 184.512 177.176 184.52Z" fill="#263238"/>
<path d="M174.423 180.883C171.919 181.397 169.735 181.837 167.518 183.179C164.582 184.955 161.749 187.947 160.755 189.009C159.657 190.181 158.599 191.388 157.559 192.612C157.517 192.662 157.602 192.737 157.646 192.688C160.022 190.012 162.582 187.47 165.284 185.124C166.576 184.003 167.979 183.026 169.555 182.347C171.113 181.675 172.782 181.295 174.426 180.901C174.437 180.897 174.434 180.881 174.423 180.883Z" fill="#263238"/>
<path d="M208.014 173.83L226.826 173.032C226.826 173.032 230.242 163.711 231.499 155.436C232.755 147.16 225.706 150.131 218.722 159.043C211.739 167.955 208.014 173.83 208.014 173.83Z" fill="#FFC727"/>
<path d="M214.17 168.205C214.298 168.169 214.426 168.154 214.554 168.128C214.673 168.105 214.842 168.099 214.98 168.156C215.268 168.257 215.482 168.556 215.484 168.874C215.48 169.083 215.582 169.27 215.759 169.389C215.85 169.448 215.945 169.481 216.075 169.495C216.202 169.522 216.33 169.537 216.458 169.573C216.33 169.609 216.203 169.624 216.075 169.651C215.949 169.674 215.784 169.671 215.647 169.609C215.361 169.501 215.163 169.185 215.168 168.879C215.17 168.682 215.056 168.489 214.877 168.38C214.782 168.324 214.689 168.297 214.554 168.282C214.426 168.256 214.298 168.241 214.17 168.205ZM227.406 156.777C227.541 156.793 227.634 156.819 227.728 156.875C227.908 156.984 228.022 157.177 228.02 157.375C228.014 157.68 228.213 157.996 228.499 158.105C228.636 158.166 228.801 158.169 228.926 158.146C229.054 158.119 229.182 158.104 229.31 158.068C229.182 158.032 229.054 158.017 228.926 157.991C228.797 157.976 228.702 157.943 228.61 157.884C228.434 157.765 228.331 157.578 228.336 157.369C228.333 157.052 228.12 156.752 227.831 156.651C227.694 156.594 227.524 156.6 227.406 156.623C227.278 156.649 227.15 156.665 227.022 156.7C227.15 156.736 227.278 156.751 227.406 156.777ZM227.883 164.106C227.776 164.191 227.692 164.238 227.586 164.265C227.381 164.315 227.165 164.259 227.026 164.118C226.814 163.899 226.45 163.815 226.171 163.941C226.031 163.994 225.912 164.109 225.84 164.214C225.768 164.323 225.689 164.425 225.624 164.54C225.739 164.475 225.841 164.396 225.95 164.324C226.052 164.243 226.142 164.199 226.248 164.175C226.457 164.135 226.662 164.195 226.807 164.346C227.033 164.568 227.396 164.629 227.671 164.496C227.808 164.439 227.924 164.315 227.992 164.215C228.064 164.106 228.144 164.005 228.209 163.889C228.093 163.955 227.992 164.034 227.883 164.106ZM222.772 155.556C222.664 155.64 222.58 155.688 222.472 155.716C222.268 155.764 222.052 155.708 221.912 155.568C221.88 155.536 221.848 155.508 221.812 155.48C221.736 155.556 221.664 155.632 221.592 155.712C221.628 155.732 221.664 155.764 221.696 155.796C221.92 156.02 222.284 156.08 222.56 155.948C222.696 155.892 222.812 155.768 222.88 155.664C222.952 155.556 223.032 155.456 223.096 155.34C222.98 155.404 222.88 155.484 222.772 155.556ZM220.644 162.601C220.629 162.736 220.603 162.829 220.547 162.923C220.437 163.103 220.245 163.217 220.047 163.215C219.742 163.209 219.426 163.408 219.317 163.694C219.256 163.831 219.252 163.996 219.276 164.121C219.302 164.249 219.318 164.377 219.354 164.505C219.39 164.377 219.405 164.249 219.431 164.121C219.446 163.992 219.479 163.897 219.538 163.805C219.656 163.629 219.844 163.527 220.053 163.531C220.37 163.528 220.67 163.315 220.77 163.026C220.828 162.889 220.822 162.719 220.799 162.6C220.773 162.472 220.757 162.345 220.722 162.217C220.686 162.345 220.67 162.473 220.644 162.601ZM226.03 169.765C226.015 169.9 225.988 169.993 225.932 170.087C225.823 170.267 225.63 170.381 225.433 170.379C225.128 170.373 224.811 170.572 224.703 170.858C224.641 170.995 224.638 171.16 224.662 171.285C224.688 171.413 224.703 171.541 224.739 171.669C224.775 171.541 224.79 171.413 224.817 171.285C224.832 171.156 224.864 171.061 224.923 170.969C225.042 170.793 225.23 170.691 225.438 170.695C225.756 170.692 226.056 170.479 226.156 170.19C226.213 170.053 226.208 169.883 226.184 169.764C226.158 169.636 226.143 169.509 226.107 169.381C226.071 169.509 226.056 169.637 226.03 169.765Z" fill="white"/>
<path d="M227.468 168.948C223.4 168.844 219.318 169.024 215.251 169.285C214.1 169.358 212.951 169.459 211.805 169.587C211.772 169.591 211.769 169.638 211.803 169.639C213.836 169.648 215.868 169.574 217.902 169.511C219.94 169.449 221.981 169.37 224.017 169.25C225.168 169.182 226.317 169.116 227.466 169.025C227.515 169.021 227.519 168.949 227.468 168.948Z" fill="#263238"/>
<path d="M213.292 203.893H261.306C261.835 202.922 253.966 160.864 237.773 149.022C234.18 146.394 227.807 148.084 226.034 150.639C217.124 163.479 213.292 203.893 213.292 203.893Z" fill="#FFC727"/>
<path d="M233.656 168.204C233.784 168.169 233.911 168.153 234.039 168.127C234.158 168.104 234.328 168.098 234.465 168.156C234.754 168.256 234.967 168.556 234.97 168.873C234.965 169.082 235.068 169.27 235.244 169.388C235.335 169.447 235.43 169.48 235.56 169.495C235.688 169.521 235.816 169.536 235.944 169.572C235.816 169.608 235.688 169.624 235.56 169.65C235.435 169.674 235.269 169.67 235.132 169.609C234.846 169.5 234.648 169.184 234.653 168.879C234.655 168.681 234.542 168.489 234.362 168.379C234.268 168.323 234.174 168.297 234.039 168.282C233.911 168.256 233.783 168.24 233.656 168.204ZM241.115 193.592C241.25 193.607 241.343 193.634 241.438 193.69C241.617 193.799 241.731 193.992 241.729 194.189C241.724 194.494 241.922 194.811 242.208 194.919C242.345 194.981 242.51 194.984 242.636 194.96C242.764 194.934 242.891 194.919 243.019 194.883C242.891 194.847 242.764 194.832 242.636 194.805C242.506 194.79 242.411 194.758 242.32 194.699C242.143 194.58 242.041 194.392 242.045 194.184C242.042 193.866 241.829 193.566 241.54 193.466C241.403 193.409 241.233 193.414 241.115 193.438C240.987 193.464 240.859 193.479 240.731 193.515C240.859 193.55 240.987 193.566 241.115 193.592ZM249.922 169.65C250.058 169.665 250.151 169.691 250.245 169.747C250.425 169.856 250.538 170.049 250.536 170.247C250.531 170.552 250.73 170.868 251.016 170.977C251.152 171.038 251.318 171.042 251.443 171.018C251.571 170.992 251.699 170.976 251.827 170.94C251.699 170.904 251.571 170.889 251.443 170.863C251.314 170.848 251.218 170.815 251.127 170.756C250.951 170.638 250.848 170.45 250.853 170.241C250.85 169.924 250.637 169.624 250.348 169.524C250.211 169.466 250.041 169.472 249.922 169.495C249.794 169.521 249.667 169.537 249.539 169.572C249.667 169.608 249.794 169.623 249.922 169.65ZM227.406 156.777C227.541 156.792 227.634 156.818 227.728 156.874C227.908 156.984 228.022 157.176 228.02 157.374C228.014 157.679 228.213 157.996 228.499 158.104C228.636 158.166 228.801 158.169 228.926 158.145C229.054 158.119 229.182 158.104 229.31 158.068C229.182 158.032 229.054 158.016 228.926 157.99C228.797 157.975 228.702 157.942 228.61 157.884C228.434 157.765 228.331 157.577 228.336 157.368C228.333 157.051 228.12 156.751 227.831 156.651C227.694 156.594 227.524 156.599 227.406 156.622C227.278 156.648 227.15 156.664 227.022 156.7C227.15 156.735 227.278 156.751 227.406 156.777ZM241.265 156.487C241.401 156.502 241.494 156.528 241.588 156.584C241.768 156.694 241.881 156.886 241.879 157.084C241.874 157.389 242.072 157.706 242.358 157.814C242.495 157.876 242.66 157.879 242.786 157.855C242.914 157.829 243.042 157.814 243.17 157.778C243.042 157.742 242.914 157.726 242.786 157.7C242.656 157.685 242.561 157.652 242.47 157.594C242.294 157.475 242.191 157.287 242.196 157.078C242.193 156.761 241.98 156.461 241.691 156.361C241.554 156.304 241.384 156.309 241.265 156.332C241.137 156.358 241.01 156.374 240.882 156.41C241.01 156.445 241.137 156.46 241.265 156.487ZM224.004 178.872C224.139 178.887 224.232 178.913 224.326 178.969C224.506 179.078 224.62 179.271 224.618 179.469C224.612 179.774 224.811 180.09 225.097 180.199C225.234 180.26 225.399 180.264 225.524 180.24C225.652 180.214 225.78 180.198 225.908 180.162C225.78 180.126 225.652 180.111 225.524 180.085C225.395 180.07 225.3 180.037 225.208 179.978C225.032 179.86 224.93 179.672 224.934 179.463C224.931 179.146 224.718 178.846 224.429 178.746C224.292 178.688 224.122 178.694 224.003 178.717C223.875 178.743 223.748 178.759 223.62 178.794C223.748 178.83 223.876 178.846 224.004 178.872ZM239.118 202.062C239.253 202.078 239.346 202.104 239.44 202.16C239.62 202.27 239.734 202.462 239.732 202.66C239.726 202.965 239.925 203.281 240.211 203.39C240.348 203.451 240.513 203.454 240.638 203.431C240.766 203.404 240.894 203.389 241.022 203.353C240.894 203.317 240.766 203.302 240.638 203.276C240.509 203.261 240.414 203.228 240.322 203.169C240.146 203.05 240.044 202.863 240.048 202.654C240.045 202.336 239.832 202.037 239.543 201.936C239.406 201.879 239.236 201.885 239.118 201.908C238.99 201.934 238.862 201.95 238.734 201.985C238.862 202.021 238.99 202.036 239.118 202.062ZM231.676 189.601C231.812 189.616 231.904 189.643 231.999 189.699C232.178 189.808 232.292 190.001 232.29 190.198C232.285 190.504 232.483 190.82 232.769 190.928C232.906 190.99 233.071 190.993 233.197 190.97C233.325 190.943 233.452 190.928 233.58 190.892C233.452 190.856 233.325 190.841 233.197 190.814C233.067 190.8 232.972 190.767 232.881 190.708C232.704 190.59 232.602 190.402 232.606 190.193C232.604 189.876 232.39 189.576 232.102 189.475C231.964 189.418 231.795 189.424 231.676 189.447C231.548 189.473 231.42 189.488 231.292 189.524C231.42 189.56 231.548 189.575 231.676 189.601ZM214.636 202.375C214.508 202.359 214.412 202.327 214.32 202.267C214.144 202.151 214.04 201.963 214.048 201.751C214.044 201.455 213.856 201.171 213.592 201.059C213.58 201.163 213.568 201.259 213.56 201.355C213.668 201.463 213.732 201.607 213.728 201.759C213.724 202.063 213.924 202.379 214.208 202.487C214.344 202.551 214.512 202.555 214.636 202.531C214.764 202.503 214.892 202.487 215.02 202.451C214.892 202.415 214.764 202.399 214.636 202.375ZM217.909 191.866C218.045 191.881 218.138 191.907 218.232 191.963C218.412 192.072 218.525 192.265 218.523 192.463C218.518 192.768 218.716 193.084 219.002 193.193C219.139 193.254 219.305 193.258 219.43 193.234C219.558 193.208 219.686 193.192 219.814 193.156C219.686 193.12 219.558 193.105 219.43 193.079C219.3 193.064 219.205 193.031 219.114 192.972C218.938 192.854 218.835 192.666 218.84 192.457C218.837 192.14 218.624 191.84 218.335 191.74C218.198 191.682 218.028 191.688 217.909 191.711C217.781 191.737 217.653 191.753 217.525 191.788C217.654 191.824 217.782 191.84 217.909 191.866ZM238.013 179.177C238.149 179.192 238.242 179.218 238.336 179.274C238.516 179.384 238.629 179.576 238.627 179.774C238.622 180.079 238.82 180.396 239.106 180.504C239.243 180.566 239.408 180.569 239.534 180.545C239.662 180.519 239.79 180.504 239.918 180.468C239.79 180.432 239.662 180.416 239.534 180.39C239.404 180.375 239.309 180.342 239.218 180.284C239.042 180.165 238.939 179.977 238.944 179.768C238.941 179.451 238.728 179.151 238.439 179.051C238.302 178.994 238.132 178.999 238.013 179.022C237.885 179.048 237.758 179.064 237.63 179.1C237.757 179.135 237.885 179.151 238.013 179.177ZM255.618 196.238C255.754 196.254 255.847 196.28 255.941 196.336C256.121 196.446 256.234 196.638 256.232 196.836C256.227 197.141 256.426 197.457 256.712 197.566C256.848 197.627 257.014 197.63 257.139 197.607C257.267 197.58 257.395 197.565 257.523 197.529C257.395 197.493 257.267 197.478 257.139 197.452C257.01 197.437 256.914 197.404 256.823 197.345C256.647 197.227 256.544 197.039 256.549 196.83C256.546 196.513 256.333 196.213 256.044 196.112C255.906 196.055 255.737 196.061 255.618 196.084C255.49 196.11 255.363 196.126 255.235 196.161C255.363 196.197 255.491 196.212 255.618 196.238ZM248.63 185.823C248.765 185.838 248.858 185.865 248.952 185.921C249.132 186.03 249.246 186.223 249.244 186.42C249.238 186.726 249.437 187.042 249.723 187.15C249.86 187.212 250.025 187.215 250.15 187.192C250.278 187.165 250.406 187.15 250.534 187.114C250.406 187.078 250.278 187.063 250.15 187.036C250.021 187.022 249.926 186.989 249.834 186.93C249.658 186.811 249.556 186.624 249.56 186.415C249.557 186.098 249.344 185.798 249.055 185.697C248.918 185.64 248.748 185.646 248.63 185.669C248.502 185.695 248.374 185.71 248.246 185.746C248.374 185.782 248.502 185.797 248.63 185.823ZM227.883 164.106C227.776 164.191 227.692 164.238 227.586 164.265C227.381 164.314 227.165 164.259 227.026 164.118C226.814 163.898 226.45 163.815 226.171 163.94C226.031 163.994 225.912 164.108 225.84 164.214C225.768 164.322 225.689 164.424 225.624 164.54C225.739 164.474 225.841 164.395 225.95 164.323C226.052 164.242 226.142 164.198 226.248 164.175C226.457 164.134 226.662 164.194 226.807 164.345C227.033 164.568 227.396 164.629 227.671 164.496C227.808 164.439 227.924 164.315 227.992 164.214C228.064 164.106 228.144 164.004 228.209 163.889C228.093 163.954 227.992 164.034 227.883 164.106ZM248.57 178.991C248.464 179.076 248.379 179.123 248.273 179.15C248.068 179.2 247.852 179.144 247.714 179.003C247.501 178.783 247.137 178.7 246.858 178.826C246.718 178.879 246.599 178.994 246.527 179.099C246.455 179.208 246.376 179.309 246.31 179.425C246.426 179.36 246.528 179.28 246.636 179.208C246.738 179.127 246.829 179.083 246.935 179.06C247.144 179.019 247.349 179.08 247.494 179.23C247.72 179.453 248.083 179.514 248.358 179.381C248.495 179.324 248.611 179.2 248.679 179.1C248.751 178.991 248.83 178.89 248.896 178.774C248.78 178.84 248.679 178.919 248.57 178.991ZM235.66 151.277C235.554 151.362 235.469 151.409 235.363 151.436C235.158 151.486 234.942 151.43 234.804 151.289C234.591 151.069 234.227 150.986 233.948 151.112C233.808 151.165 233.689 151.28 233.617 151.385C233.545 151.494 233.466 151.595 233.401 151.711C233.516 151.646 233.618 151.566 233.727 151.494C233.829 151.413 233.92 151.369 234.026 151.346C234.234 151.305 234.44 151.366 234.584 151.516C234.81 151.739 235.173 151.8 235.448 151.667C235.586 151.61 235.702 151.486 235.77 151.386C235.842 151.277 235.921 151.176 235.986 151.06C235.87 151.125 235.769 151.205 235.66 151.277ZM235.406 159.486C235.391 159.621 235.364 159.714 235.308 159.808C235.199 159.988 235.006 160.102 234.809 160.1C234.503 160.094 234.187 160.293 234.079 160.579C234.017 160.716 234.014 160.881 234.038 161.006C234.064 161.134 234.079 161.262 234.115 161.39C234.151 161.262 234.166 161.134 234.193 161.006C234.208 160.877 234.24 160.782 234.299 160.69C234.418 160.514 234.606 160.411 234.814 160.416C235.132 160.413 235.432 160.2 235.532 159.911C235.589 159.774 235.584 159.604 235.56 159.486C235.534 159.358 235.519 159.23 235.483 159.102C235.448 159.23 235.432 159.358 235.406 159.486ZM232.359 181.977C232.344 182.113 232.318 182.206 232.262 182.3C232.152 182.48 231.96 182.593 231.762 182.591C231.457 182.586 231.14 182.785 231.032 183.07C230.97 183.207 230.967 183.372 230.991 183.498C231.017 183.626 231.032 183.754 231.068 183.882C231.104 183.754 231.12 183.626 231.146 183.498C231.161 183.368 231.194 183.273 231.252 183.182C231.371 183.006 231.559 182.903 231.768 182.908C232.085 182.905 232.385 182.692 232.485 182.403C232.542 182.266 232.537 182.096 232.514 181.977C232.488 181.85 232.472 181.722 232.436 181.594C232.4 181.722 232.385 181.849 232.359 181.977ZM248.32 162.383C248.3 162.387 248.28 162.387 248.256 162.387C247.948 162.383 247.632 162.579 247.524 162.867C247.464 163.003 247.46 163.167 247.484 163.295C247.508 163.423 247.524 163.551 247.56 163.679C247.596 163.551 247.612 163.423 247.64 163.295C247.652 163.163 247.688 163.071 247.744 162.979C247.864 162.803 248.052 162.699 248.26 162.703C248.332 162.703 248.4 162.691 248.468 162.667C248.42 162.571 248.368 162.479 248.32 162.383ZM248.21 198.712C248.195 198.848 248.168 198.941 248.112 199.035C248.003 199.215 247.81 199.328 247.613 199.326C247.308 199.321 246.991 199.52 246.883 199.806C246.821 199.942 246.818 200.108 246.842 200.233C246.868 200.361 246.883 200.489 246.919 200.617C246.955 200.489 246.97 200.361 246.997 200.233C247.012 200.104 247.044 200.008 247.103 199.917C247.222 199.741 247.41 199.638 247.618 199.643C247.936 199.64 248.236 199.427 248.336 199.138C248.393 199.001 248.388 198.831 248.364 198.712C248.338 198.584 248.323 198.456 248.287 198.328C248.251 198.457 248.236 198.585 248.21 198.712ZM255.076 178.323C255.072 178.335 255.068 178.343 255.06 178.355C254.952 178.535 254.76 178.651 254.56 178.647C254.256 178.643 253.94 178.843 253.832 179.127C253.768 179.263 253.764 179.431 253.788 179.555C253.816 179.683 253.832 179.811 253.868 179.939C253.904 179.811 253.92 179.683 253.944 179.555C253.96 179.427 253.992 179.331 254.052 179.239C254.168 179.063 254.356 178.959 254.568 178.963C254.808 178.963 255.044 178.835 255.184 178.647C255.184 178.647 255.184 178.647 255.184 178.643C255.148 178.539 255.112 178.431 255.076 178.323ZM219.96 182.782C219.945 182.918 219.919 183.01 219.863 183.105C219.753 183.284 219.561 183.398 219.363 183.396C219.058 183.391 218.742 183.589 218.633 183.875C218.572 184.012 218.568 184.177 218.592 184.303C218.618 184.431 218.634 184.558 218.67 184.686C218.706 184.559 218.721 184.431 218.747 184.303C218.762 184.173 218.795 184.078 218.854 183.987C218.972 183.81 219.16 183.708 219.369 183.712C219.686 183.71 219.986 183.496 220.086 183.208C220.144 183.07 220.138 182.901 220.115 182.782C220.089 182.654 220.073 182.526 220.038 182.398C220.002 182.526 219.986 182.654 219.96 182.782ZM220.804 162.627C220.736 162.851 220.668 163.071 220.6 163.295C220.676 163.219 220.736 163.127 220.772 163.027C220.824 162.899 220.82 162.743 220.804 162.627ZM228.006 149.481C227.991 149.617 227.965 149.71 227.909 149.804C227.8 149.984 227.607 150.097 227.409 150.095C227.104 150.09 226.788 150.288 226.679 150.574C226.618 150.711 226.614 150.877 226.638 151.002C226.664 151.13 226.68 151.258 226.716 151.386C226.752 151.258 226.767 151.13 226.793 151.002C226.808 150.872 226.841 150.777 226.9 150.686C227.018 150.51 227.206 150.407 227.415 150.412C227.732 150.409 228.032 150.196 228.132 149.907C228.19 149.77 228.184 149.6 228.161 149.481C228.135 149.353 228.119 149.226 228.084 149.098C228.048 149.225 228.032 149.353 228.006 149.481ZM226.03 169.764C226.015 169.9 225.988 169.992 225.932 170.087C225.823 170.266 225.63 170.38 225.433 170.378C225.128 170.373 224.811 170.571 224.703 170.857C224.641 170.994 224.638 171.159 224.662 171.285C224.688 171.412 224.703 171.54 224.739 171.668C224.775 171.54 224.79 171.413 224.817 171.285C224.832 171.155 224.864 171.06 224.923 170.969C225.042 170.792 225.23 170.69 225.438 170.694C225.756 170.692 226.056 170.478 226.156 170.19C226.213 170.052 226.208 169.882 226.184 169.764C226.158 169.636 226.143 169.508 226.107 169.38C226.071 169.508 226.056 169.636 226.03 169.764ZM243.776 172.49C243.761 172.626 243.735 172.719 243.679 172.813C243.57 172.993 243.377 173.106 243.179 173.104C242.874 173.099 242.558 173.298 242.449 173.584C242.388 173.72 242.384 173.886 242.408 174.011C242.434 174.139 242.45 174.267 242.486 174.395C242.522 174.267 242.537 174.139 242.563 174.011C242.578 173.882 242.611 173.786 242.67 173.695C242.788 173.519 242.976 173.416 243.185 173.421C243.502 173.418 243.802 173.205 243.902 172.916C243.96 172.778 243.954 172.609 243.931 172.49C243.905 172.362 243.889 172.235 243.854 172.107C243.818 172.234 243.802 172.362 243.776 172.49ZM227.374 195.266C227.359 195.402 227.333 195.494 227.277 195.589C227.167 195.768 226.975 195.882 226.777 195.88C226.472 195.875 226.156 196.074 226.047 196.359C225.986 196.496 225.982 196.662 226.006 196.787C226.032 196.915 226.048 197.042 226.084 197.17C226.12 197.042 226.135 196.915 226.161 196.787C226.176 196.657 226.209 196.562 226.268 196.471C226.386 196.294 226.574 196.192 226.783 196.196C227.1 196.194 227.4 195.98 227.5 195.692C227.558 195.554 227.552 195.385 227.529 195.266C227.503 195.138 227.487 195.01 227.452 194.882C227.416 195.01 227.4 195.138 227.374 195.266ZM241.138 165.452C241.244 165.367 241.329 165.32 241.435 165.293C241.64 165.243 241.856 165.299 241.994 165.44C242.207 165.66 242.571 165.743 242.85 165.617C242.99 165.564 243.109 165.449 243.181 165.344C243.253 165.235 243.332 165.134 243.398 165.018C243.282 165.083 243.18 165.162 243.072 165.234C242.97 165.316 242.879 165.36 242.773 165.383C242.564 165.424 242.359 165.363 242.215 165.212C241.988 164.99 241.626 164.929 241.35 165.062C241.213 165.119 241.097 165.243 241.029 165.343C240.957 165.452 240.878 165.553 240.812 165.669C240.928 165.603 241.029 165.524 241.138 165.452ZM230.786 174.829C230.892 174.744 230.976 174.697 231.083 174.67C231.287 174.62 231.504 174.676 231.642 174.817C231.854 175.036 232.218 175.12 232.497 174.994C232.637 174.941 232.757 174.826 232.828 174.721C232.9 174.612 232.98 174.51 233.045 174.395C232.929 174.46 232.828 174.539 232.719 174.611C232.617 174.692 232.526 174.736 232.42 174.76C232.212 174.8 232.006 174.74 231.862 174.589C231.635 174.367 231.272 174.306 230.998 174.439C230.86 174.496 230.744 174.62 230.676 174.72C230.604 174.829 230.525 174.93 230.46 175.046C230.576 174.98 230.677 174.901 230.786 174.829ZM223.772 188.642C223.879 188.557 223.963 188.51 224.07 188.483C224.274 188.434 224.49 188.489 224.629 188.63C224.841 188.85 225.205 188.933 225.484 188.808C225.624 188.754 225.744 188.64 225.815 188.534C225.887 188.426 225.966 188.324 226.032 188.208C225.916 188.274 225.814 188.353 225.706 188.425C225.604 188.506 225.513 188.55 225.407 188.573C225.198 188.614 224.993 188.554 224.849 188.403C224.622 188.18 224.26 188.119 223.984 188.252C223.847 188.309 223.731 188.433 223.663 188.534C223.591 188.642 223.512 188.744 223.446 188.859C223.562 188.794 223.664 188.714 223.772 188.642ZM226.804 202.996C226.91 202.911 226.995 202.864 227.101 202.837C227.305 202.788 227.522 202.843 227.66 202.984C227.873 203.204 228.237 203.287 228.516 203.162C228.656 203.108 228.775 202.994 228.847 202.888C228.919 202.779 228.998 202.678 229.064 202.562C228.948 202.628 228.846 202.707 228.738 202.779C228.636 202.86 228.545 202.904 228.439 202.927C228.23 202.968 228.025 202.908 227.881 202.757C227.654 202.534 227.292 202.473 227.016 202.606C226.879 202.663 226.763 202.787 226.695 202.888C226.623 202.996 226.544 203.098 226.478 203.213C226.594 203.148 226.695 203.068 226.804 202.996ZM240.375 187.222C240.481 187.137 240.566 187.09 240.672 187.063C240.876 187.014 241.093 187.069 241.231 187.21C241.444 187.43 241.808 187.513 242.086 187.388C242.226 187.334 242.346 187.22 242.418 187.114C242.489 187.006 242.569 186.904 242.634 186.788C242.518 186.854 242.417 186.933 242.308 187.005C242.206 187.086 242.115 187.13 242.009 187.153C241.801 187.194 241.595 187.134 241.451 186.983C241.224 186.76 240.862 186.699 240.586 186.832C240.449 186.889 240.333 187.013 240.265 187.114C240.193 187.222 240.114 187.324 240.048 187.439C240.165 187.374 240.266 187.294 240.375 187.222ZM249.716 192.94C249.822 192.854 249.907 192.807 250.013 192.78C250.218 192.731 250.434 192.787 250.572 192.928C250.785 193.147 251.149 193.23 251.428 193.105C251.568 193.052 251.687 192.937 251.759 192.832C251.831 192.723 251.91 192.621 251.976 192.506C251.86 192.571 251.758 192.65 251.65 192.722C251.548 192.803 251.457 192.847 251.351 192.87C251.142 192.911 250.937 192.851 250.792 192.7C250.566 192.478 250.203 192.416 249.928 192.55C249.791 192.606 249.675 192.73 249.607 192.831C249.535 192.94 249.456 193.041 249.39 193.156C249.506 193.091 249.607 193.012 249.716 192.94ZM234.004 197.279C234.11 197.194 234.194 197.147 234.301 197.12C234.505 197.07 234.722 197.126 234.86 197.267C235.072 197.487 235.436 197.57 235.715 197.444C235.855 197.391 235.975 197.276 236.046 197.171C236.118 197.062 236.198 196.961 236.263 196.845C236.147 196.91 236.046 196.99 235.937 197.062C235.835 197.143 235.744 197.187 235.638 197.21C235.43 197.251 235.224 197.19 235.08 197.04C234.853 196.817 234.49 196.756 234.215 196.889C234.078 196.946 233.962 197.07 233.894 197.17C233.822 197.279 233.742 197.38 233.677 197.496C233.793 197.431 233.894 197.351 234.004 197.279ZM254.268 202.996C254.375 202.911 254.459 202.864 254.566 202.837C254.77 202.788 254.986 202.843 255.125 202.984C255.337 203.204 255.701 203.287 255.98 203.162C256.12 203.108 256.24 202.994 256.312 202.888C256.383 202.779 256.463 202.678 256.528 202.562C256.412 202.628 256.311 202.707 256.202 202.779C256.1 202.86 256.009 202.904 255.903 202.927C255.695 202.968 255.489 202.908 255.345 202.757C255.118 202.534 254.756 202.473 254.48 202.606C254.343 202.663 254.227 202.787 254.159 202.888C254.087 202.996 254.008 203.098 253.942 203.213C254.058 203.148 254.159 203.068 254.268 202.996ZM257.884 187.459C257.788 187.431 257.704 187.379 257.632 187.307C257.408 187.087 257.044 187.023 256.768 187.159C256.632 187.215 256.516 187.339 256.448 187.439C256.376 187.547 256.296 187.647 256.232 187.763C256.348 187.699 256.448 187.619 256.556 187.547C256.664 187.463 256.748 187.415 256.852 187.387C257.056 187.339 257.276 187.395 257.412 187.535C257.552 187.683 257.76 187.767 257.968 187.771C257.94 187.667 257.912 187.563 257.884 187.459ZM219.544 199.256C219.651 199.171 219.735 199.124 219.842 199.097C220.046 199.048 220.262 199.103 220.401 199.244C220.613 199.464 220.977 199.547 221.256 199.422C221.396 199.368 221.516 199.254 221.587 199.148C221.659 199.04 221.738 198.938 221.804 198.822C221.688 198.888 221.586 198.967 221.478 199.039C221.376 199.12 221.285 199.164 221.179 199.187C220.97 199.228 220.765 199.168 220.62 199.017C220.394 198.794 220.031 198.733 219.756 198.866C219.618 198.923 219.502 199.047 219.435 199.148C219.363 199.256 219.283 199.358 219.218 199.473C219.334 199.408 219.435 199.328 219.544 199.256ZM218.387 175.154C218.493 175.069 218.578 175.022 218.684 174.995C218.888 174.945 219.105 175.001 219.243 175.142C219.456 175.362 219.82 175.445 220.098 175.319C220.238 175.266 220.358 175.151 220.43 175.046C220.502 174.937 220.581 174.836 220.646 174.72C220.531 174.785 220.429 174.864 220.32 174.936C220.218 175.018 220.128 175.062 220.022 175.085C219.813 175.126 219.608 175.065 219.463 174.914C219.237 174.692 218.874 174.631 218.599 174.764C218.461 174.821 218.345 174.945 218.278 175.045C218.206 175.154 218.126 175.255 218.061 175.371C218.177 175.306 218.278 175.226 218.387 175.154Z" fill="white"/>
<path d="M220.92 161.827C220.478 163.423 220.052 165.022 219.64 166.623C219.693 165.924 219.769 165.227 219.859 164.532C219.864 164.491 219.802 164.473 219.793 164.516C219.616 165.382 219.53 166.257 219.506 167.136C219.014 169.068 218.547 171.006 218.118 172.955C217.295 176.69 216.564 180.452 215.958 184.227C215.616 186.355 215.352 188.498 214.987 190.622C214.98 190.662 215.043 190.677 215.05 190.637C215.384 188.753 215.828 186.879 216.238 185.009C216.646 183.15 217.042 181.29 217.428 179.427C218.204 175.682 219.024 171.946 219.796 168.2C220.231 166.09 220.636 163.974 221.072 161.864C221.091 161.768 220.946 161.732 220.92 161.827Z" fill="#263238"/>
<path d="M219.044 136.913C219.577 139.825 217.937 142.565 215.381 143.032C212.826 143.499 210.323 141.517 209.79 138.604C209.258 135.691 210.898 132.951 213.454 132.484C216.009 132.017 218.512 134 219.044 136.913Z" fill="#455A64"/>
<path d="M220.577 136.823C221.17 140.063 219.345 143.111 216.502 143.631C213.659 144.15 210.874 141.945 210.282 138.704C209.69 135.464 211.515 132.416 214.358 131.896C217.2 131.377 219.985 133.582 220.577 136.823Z" fill="#C7C7C7"/>
<path d="M228.684 159.682C231.58 159.665 235.266 154.34 236.3 150.498C236.369 150.235 233.147 141.167 232.696 139.305C232.605 138.922 221.7 144.977 221.7 144.977C221.7 144.977 223.796 148.604 224.564 151.857C224.625 152.129 225.885 159.697 228.684 159.682Z" fill="#DD6A57"/>
<path d="M225.899 152.545C225.487 152.653 225.107 152.729 224.743 152.757C224.695 152.529 224.655 152.337 224.627 152.189C224.627 152.185 224.627 152.177 224.623 152.169C224.623 152.153 224.619 152.133 224.615 152.117C224.603 152.061 224.595 152.001 224.579 151.941C224.579 151.929 224.575 151.917 224.571 151.905C224.567 151.889 224.563 151.873 224.559 151.857C224.391 151.145 224.159 150.417 223.903 149.713C223.311 148.097 222.571 146.609 222.119 145.749C222.063 145.641 222.011 145.545 221.963 145.461C221.819 145.193 221.727 145.029 221.707 144.989C221.699 144.985 221.699 144.981 221.699 144.981C221.699 144.981 221.699 144.981 221.703 144.981C221.727 144.965 221.827 144.909 221.991 144.817C222.095 144.761 222.223 144.689 222.375 144.605C222.383 144.605 222.387 144.601 222.391 144.597C222.471 144.553 222.559 144.505 222.647 144.457C222.747 144.401 222.851 144.345 222.963 144.281C223.055 144.233 223.155 144.177 223.255 144.121C223.271 144.113 223.291 144.101 223.311 144.089C223.431 144.025 223.559 143.957 223.691 143.881C223.719 143.865 223.751 143.849 223.779 143.833C223.903 143.765 224.031 143.697 224.159 143.625C224.223 143.589 224.291 143.553 224.359 143.517C224.559 143.409 224.763 143.297 224.975 143.181C225.131 143.097 225.287 143.013 225.447 142.925C225.579 142.853 225.715 142.781 225.847 142.709C226.295 142.465 226.755 142.217 227.215 141.973C227.363 141.893 227.511 141.813 227.655 141.733C228.195 141.445 228.727 141.165 229.235 140.901C229.351 140.841 229.463 140.781 229.575 140.725C229.651 140.685 229.727 140.645 229.799 140.609C229.891 140.561 229.979 140.517 230.067 140.469C230.267 140.365 230.459 140.269 230.643 140.177C230.763 140.117 230.883 140.057 230.995 140.001C231.167 139.913 231.327 139.837 231.479 139.765C231.555 139.725 231.631 139.693 231.699 139.661C231.907 139.561 232.087 139.481 232.235 139.421C232.271 139.405 232.303 139.393 232.331 139.381V139.385C232.467 142.541 232.215 150.857 225.899 152.545Z" fill="#263238"/>
<path d="M229.424 125.269C232.006 128.902 233.764 141.298 231.756 144.861C228.844 150.028 222.137 152.664 217.258 148.721C212.528 144.898 210.522 128.704 212.946 125.266C216.517 120.202 225.609 119.903 229.424 125.269Z" fill="#DD6A57"/>
<path d="M220.179 136.21C220.181 136.178 220.25 136.24 220.254 136.275C220.35 137.113 220.601 138.057 221.396 138.223C221.421 138.228 221.425 138.27 221.396 138.27C220.456 138.276 220.135 137.02 220.179 136.21Z" fill="#263238"/>
<path d="M220.796 135.23C222.123 134.931 222.623 137.607 221.394 137.884C220.184 138.157 219.684 135.481 220.796 135.23Z" fill="#263238"/>
<path d="M215.624 137.19C215.611 137.16 215.566 137.241 215.574 137.275C215.755 138.099 215.824 139.073 215.125 139.489C215.104 139.501 215.114 139.543 215.141 139.534C216.032 139.234 215.928 137.941 215.624 137.19Z" fill="#263238"/>
<path d="M214.722 136.463C213.37 136.611 213.766 139.304 215.018 139.167C216.251 139.033 215.855 136.339 214.722 136.463Z" fill="#263238"/>
<path d="M221.623 133.809C221.241 133.785 220.893 133.7 220.518 133.638C220.095 133.567 219.751 133.555 219.425 133.248C219.25 133.084 219.244 132.731 219.388 132.546C219.724 132.116 220.263 132.073 220.776 132.137C221.332 132.206 221.743 132.402 222.13 132.807C222.505 133.199 222.126 133.84 221.623 133.809Z" fill="#263238"/>
<path d="M213.436 135.309C213.795 135.179 214.105 134.999 214.448 134.834C214.834 134.648 215.161 134.539 215.387 134.153C215.509 133.946 215.416 133.607 215.226 133.469C214.783 133.151 214.254 133.261 213.78 133.467C213.265 133.689 212.926 133.993 212.668 134.49C212.418 134.971 212.961 135.48 213.436 135.309Z" fill="#263238"/>
<path d="M222.602 143.709C222.44 143.94 222.292 144.244 221.996 144.326C221.712 144.404 221.349 144.337 221.066 144.284C221.038 144.278 221.016 144.311 221.038 144.333C221.312 144.611 221.802 144.725 222.174 144.586C222.537 144.45 222.662 144.091 222.689 143.731C222.692 143.681 222.626 143.675 222.602 143.709Z" fill="#263238"/>
<path d="M221.267 141.39C220.937 142.196 220.329 142.717 219.618 142.998C219.301 143.126 218.956 143.202 218.611 143.234C218.544 143.246 218.476 143.25 218.413 143.248C218.351 143.252 218.296 143.256 218.226 143.254C218.127 143.258 218.059 143.188 218.026 143.1L218.024 143.094C218.019 143.064 218.015 143.039 218.016 143.008C218.016 143.008 218.016 143.008 218.015 143.002L218.003 142.929C217.866 142.294 217.747 141.312 217.747 141.312C217.535 141.472 216.446 142.229 216.403 141.892C216.052 139.101 215.661 135.997 215.901 133.146C215.904 133.052 216.047 133.046 216.056 133.139C216.5 135.808 216.471 138.537 216.874 141.225C217.226 141.01 217.796 140.627 218.13 140.572C218.226 140.581 218.328 142.474 218.412 142.754C218.412 142.754 218.414 142.766 218.423 142.784C219.521 142.72 220.268 142.245 221.175 141.33C221.228 141.271 221.304 141.315 221.267 141.39Z" fill="#263238"/>
<path d="M218.927 142.84C218.927 142.84 219.636 143.498 220.462 143.628C220.766 143.678 221.082 143.66 221.388 143.514C222.017 143.217 221.92 142.606 221.701 142.109C221.523 141.7 221.256 141.369 221.256 141.369C221.256 141.369 220.459 142.454 218.927 142.84Z" fill="#263238"/>
<path d="M220.462 143.629C220.766 143.678 221.082 143.661 221.388 143.515C222.017 143.217 221.92 142.606 221.701 142.109C221.006 142.315 220.393 142.928 220.462 143.629Z" fill="#FF99BA"/>
<path opacity="0.2" d="M228.959 130.472C229.783 131.517 231.586 134.018 232.197 134.05C231.565 130.015 230.534 126.49 228.927 124.617C228.231 123.806 227.466 123.207 226.566 122.709C226.796 123.772 228.085 129.378 228.959 130.472Z" fill="#263238"/>
<path d="M216.935 128.019C217.952 128.958 219.386 129.336 220.728 128.961C222.035 128.595 223.253 127.526 223.585 126.182C223.595 126.142 223.657 126.157 223.648 126.197C223.292 127.635 222.302 128.897 220.82 129.274C219.428 129.627 217.837 129.148 216.867 128.092C216.824 128.045 216.888 127.976 216.935 128.019Z" fill="#263238"/>
<path d="M219.952 117.714C222.268 117.505 224.532 118.544 225.554 120.023C226.175 120.922 226.361 121.884 226.318 122.888C226.316 122.929 226.232 122.93 226.231 122.889C226.188 121.31 225.214 119.616 223.416 118.713C221.688 117.846 219.514 117.761 217.743 118.671C216.818 119.146 216.104 119.847 215.787 120.639C215.752 120.728 215.572 120.693 215.6 120.603C216.064 119.09 217.856 117.904 219.952 117.714Z" fill="#263238"/>
<path d="M207.1 124.233C207.336 123.055 208.021 121.99 208.962 121.25C210.28 120.213 211.898 120.162 213.506 120.145C213.549 120.144 213.55 120.212 213.507 120.212C212.138 120.232 210.751 120.332 209.578 121.109C208.621 121.742 207.87 122.704 207.536 123.807C206.844 126.095 208.035 128.702 210.241 129.641C211.49 130.172 212.96 130.157 214.196 129.598C214.245 129.576 214.29 129.646 214.241 129.67C211.989 130.76 209.109 130.003 207.788 127.847C207.135 126.783 206.853 125.464 207.1 124.233Z" fill="#263238"/>
<path d="M230.716 127.919C230.716 127.919 232.425 123.533 230.312 121.356C229.115 120.123 225.69 120.705 225.69 120.705C225.69 120.705 224.347 118.854 221.416 118.536C218.454 118.214 215.222 120.3 215.222 120.3C215.222 120.3 212.3 119.054 209.906 120.821C206.568 123.286 207.655 128.682 211.461 130.012C214.134 130.945 217.305 128.304 217.305 128.304C217.64 128.31 221.26 129.951 223.462 126.635C223.462 126.635 225.756 128.237 227.469 126.724C227.469 126.724 228.633 128.487 230.716 127.919Z" fill="#263238"/>
<path d="M221.936 139.844C219.95 139.966 218.235 138.448 218.113 136.462C217.992 134.476 219.509 132.761 221.496 132.64C223.482 132.518 225.197 134.035 225.319 136.022C225.421 137.702 224.352 139.188 222.818 139.679C222.538 139.769 222.243 139.826 221.936 139.844ZM218.595 136.433C218.701 138.154 220.186 139.468 221.907 139.363C223.627 139.26 224.941 137.772 224.837 136.051C224.731 134.33 223.245 133.016 221.525 133.121C221.259 133.137 221.003 133.186 220.761 133.264C219.432 133.69 218.506 134.978 218.595 136.433Z" fill="#FFC727"/>
<path d="M214.452 141.288C212.999 141.573 211.505 140.215 211.122 138.263C210.939 137.331 211.032 136.399 211.385 135.64C211.749 134.855 212.343 134.344 213.065 134.205C213.784 134.064 214.529 134.311 215.162 134.901C215.775 135.47 216.213 136.297 216.396 137.23C216.757 139.078 215.996 140.808 214.681 141.23C214.607 141.253 214.531 141.273 214.452 141.288ZM211.823 135.843C211.513 136.511 211.432 137.337 211.595 138.17C211.927 139.861 213.167 141.048 214.36 140.815C215.557 140.581 216.253 139.015 215.922 137.322C215.759 136.489 215.372 135.754 214.834 135.253C214.316 134.772 213.72 134.568 213.157 134.678C213.097 134.69 213.038 134.705 212.98 134.724C212.495 134.879 212.089 135.27 211.823 135.843Z" fill="#FFC727"/>
<path d="M218.313 136.848L218.546 136.425C217.92 136.08 216.559 135.717 215.876 136.811L216.285 137.067C216.896 136.085 218.255 136.817 218.313 136.848Z" fill="#FFC727"/>
<path d="M234.273 134.67L234.651 134.37C234.51 134.194 233.253 132.649 232.162 132.684C231.143 132.72 224.912 134.558 224.648 134.637L224.785 135.099C226.57 134.571 231.39 133.192 232.178 133.167C232.898 133.143 233.934 134.244 234.273 134.67Z" fill="#FFC727"/>
<path d="M230.1 135.624C230.1 135.624 231.576 130.994 233.596 131.405C235.617 131.816 235.332 137.95 233.541 139.335C231.75 140.719 230.436 139.086 230.436 139.086L230.1 135.624Z" fill="#DD6A57"/>
<path d="M233.471 133.161C233.503 133.148 233.523 133.191 233.499 133.212C232.258 134.229 231.92 135.779 231.821 137.307C232.08 136.65 232.565 136.183 233.426 136.467C233.471 136.482 233.454 136.551 233.411 136.555C232.79 136.611 232.402 136.843 232.154 137.431C231.978 137.847 231.918 138.324 231.837 138.767C231.81 138.915 231.56 138.918 231.563 138.757C231.563 138.745 231.564 138.732 231.564 138.72C230.964 136.92 231.584 133.948 233.471 133.161Z" fill="#263238"/>
<path d="M232.333 132.119C232.333 132.119 232.045 125.647 229.768 122.313C227.233 118.602 220.233 116.116 215.223 120.3C215.223 120.3 222.498 118.411 227.26 122.88C229.45 124.935 230.207 132.53 230.207 132.53L232.333 132.119Z" fill="#C7C7C7"/>
<path d="M226.678 136.039C227.01 139.316 229.61 141.736 232.486 141.445C235.361 141.153 237.422 138.26 237.09 134.983C236.757 131.705 234.157 129.285 231.282 129.577C228.406 129.868 226.345 132.761 226.678 136.039Z" fill="#C7C7C7"/>
<path d="M228.175 135.697C228.474 138.643 230.812 140.819 233.396 140.557C235.98 140.295 237.833 137.694 237.534 134.748C237.236 131.802 234.898 129.626 232.314 129.889C229.73 130.151 227.876 132.751 228.175 135.697Z" fill="#455A64"/>
<path d="M243.917 153.177C251.669 161.48 270.111 192.64 264.132 198.385C258.11 204.172 224.971 196.397 215.65 191.956C212.878 190.636 223.414 173.35 226.672 172.946C229.385 172.61 243.256 178.955 243.657 178.157C244.11 177.255 240.96 171.467 237.623 159.417C233.776 145.522 240.492 149.51 243.917 153.177Z" fill="#DD6A57"/>
<path d="M212.898 167.367C206.16 166.428 204.285 167.222 199.019 163.41C195.563 160.908 192.482 162.041 194.454 166.016C197.679 172.517 206.119 175.554 209.348 175.764L212.898 167.367Z" fill="#DD6A57"/>
<path d="M230.797 173.854C230.797 173.854 223.225 169.65 216.143 167.939C211.246 166.756 200.304 165.37 189.835 176.166C187.352 178.727 185.629 184.137 191.204 181.428C195.164 179.503 197.094 177.086 199.6 176.386C199.6 176.386 198.226 183.527 200.889 185.915C202.078 186.982 205.394 189.818 208.291 191.658C208.291 191.658 208.861 191.135 209.49 190.369C209.49 190.369 212.187 192.365 217.266 191.881L230.797 173.854Z" fill="#DD6A57"/>
<path d="M211.289 167.557C208.947 168.778 204.028 171.449 200.764 175.033C197.138 179.015 191.227 187.661 194.194 190.307C196.369 192.248 198.916 189.145 198.916 189.145C198.916 189.145 197.226 193.233 199.574 194.557C201.714 195.762 203.541 193.243 203.541 193.243C203.541 193.243 202.942 195.9 205.228 196.664C207.976 197.583 208.78 191.865 212.368 190.391C213.174 190.06 211.289 167.557 211.289 167.557Z" fill="#DD6A57"/>
<path d="M205.61 178.161C203.596 179.671 199.902 184.272 198.88 189.038C198.856 189.146 198.926 189.222 198.968 189.127C201.207 184.119 204.249 179.906 205.647 178.195C205.666 178.173 205.632 178.145 205.61 178.161Z" fill="#263238"/>
<path d="M209.522 181.938C207.919 183.419 204.323 188.332 203.453 193.197C203.434 193.306 203.508 193.377 203.546 193.281C205.671 187.951 208.268 183.761 209.562 181.97C209.579 181.946 209.543 181.919 209.522 181.938Z" fill="#263238"/>
<path d="M199.599 176.342C197.403 176.988 195.974 178.066 194.121 179.352C193.204 179.989 192.275 180.613 191.292 181.144C190.398 181.628 189.078 182.359 188.126 181.602C187.595 181.18 187.603 180.412 187.721 179.808C187.853 179.128 188.113 178.475 188.516 177.911C188.537 177.882 188.488 177.846 188.466 177.874C188.094 178.376 187.774 178.91 187.558 179.497C187.362 180.029 187.21 180.648 187.36 181.211C187.682 182.422 189.11 182.581 190.122 182.248C190.726 182.049 191.299 181.727 191.85 181.412C192.382 181.106 192.9 180.775 193.408 180.432C194.452 179.727 195.454 178.962 196.49 178.245C197.628 177.457 198.414 177.071 199.632 176.415C199.673 176.393 199.642 176.329 199.599 176.342Z" fill="#263238"/>
<path d="M195 184.068C195.568 182.816 198.646 177.601 199.644 176.394C199.67 176.363 199.628 176.323 199.599 176.351C197.887 177.974 195.136 182.283 194.495 183.664C193.862 185.028 193.132 186.772 193.132 188.293C193.132 190.588 194.654 191.023 195.216 191.135C195.888 191.269 196.566 191.128 197.169 190.815C197.84 190.468 198.49 189.747 198.939 189.152C198.963 189.121 198.921 189.078 198.894 189.109C198.099 190.013 196.778 190.905 195.531 190.741C194.99 190.67 194.442 190.424 194.112 189.975C193.724 189.449 193.693 188.755 193.745 188.127C193.864 186.706 194.417 185.355 195 184.068Z" fill="#263238"/>
<path d="M203.453 193.198C203.134 193.471 202.476 194.422 201.43 194.626C200.666 194.774 199.866 194.702 199.278 194.145C198.703 193.6 198.488 192.829 198.452 192.058C198.432 191.622 198.78 189.739 198.933 189.171C198.945 189.126 198.889 189.106 198.875 189.148C198.544 190.16 198.186 191.262 198.186 192.254C198.186 193.08 198.446 193.966 199.065 194.542C199.704 195.138 200.642 195.349 201.466 195.04C201.875 194.887 203.166 194.06 203.542 193.243C203.549 193.226 203.467 193.186 203.453 193.198Z" fill="#263238"/>
<path d="M212.151 189.977C211.79 190.19 211.478 190.509 211.178 190.798C210.856 191.108 210.545 191.43 210.242 191.759C209.636 192.415 209.111 193.166 208.654 193.933C208.191 194.712 207.764 195.579 207.008 196.12C206.268 196.65 205.251 196.734 204.496 196.183C204.103 195.895 203.838 195.487 203.711 195.019C203.581 194.537 203.493 193.951 203.565 193.454C203.571 193.409 203.507 193.402 203.503 193.447C203.465 193.93 203.335 194.379 203.391 194.869C203.44 195.3 203.581 195.727 203.84 196.077C204.373 196.796 205.316 197.112 206.183 196.953C207.141 196.777 207.845 196.056 208.365 195.277C208.945 194.409 209.422 193.484 210.041 192.64C210.367 192.196 210.687 191.748 211.044 191.329C211.415 190.892 211.86 190.501 212.203 190.043C212.231 190.006 212.195 189.951 212.151 189.977Z" fill="#263238"/>
<path d="M214.835 191.935C214.115 191.873 212.452 191.596 211.14 191.169C211.101 191.157 211.047 191.265 211.083 191.284C211.572 191.554 212.596 191.823 212.905 191.885C213.521 192.011 214.197 192.067 214.826 192.003C214.861 191.999 214.877 191.939 214.835 191.935Z" fill="#263238"/>
<path d="M256.205 184.217C254.271 182.895 252.208 181.759 250.105 180.731C248.022 179.712 245.839 178.923 243.631 178.223C242.37 177.823 241.094 177.485 239.818 177.138C239.778 177.128 239.764 177.187 239.802 177.199C242.029 177.867 244.208 178.734 246.341 179.654C248.466 180.57 250.571 181.523 252.66 182.517C253.842 183.08 254.998 183.698 256.16 184.299C256.214 184.327 256.254 184.25 256.205 184.217Z" fill="#263238"/>
<path d="M259.795 172.76L240.977 172.137C240.977 172.137 237.474 162.848 236.14 154.585C234.807 146.322 241.575 148.844 248.642 157.691C255.708 166.538 259.795 172.76 259.795 172.76Z" fill="#FFC727"/>
<path d="M243.072 165.236C242.968 165.316 242.88 165.36 242.772 165.384C242.564 165.424 242.36 165.364 242.216 165.212C241.988 164.992 241.624 164.928 241.352 165.064C241.212 165.12 241.096 165.244 241.028 165.344C240.956 165.452 240.876 165.552 240.812 165.668C240.928 165.604 241.028 165.524 241.14 165.452C241.244 165.368 241.328 165.32 241.436 165.292C241.64 165.244 241.856 165.3 241.996 165.44C242.208 165.66 242.572 165.744 242.848 165.62C242.988 165.564 243.108 165.452 243.18 165.344C243.252 165.236 243.332 165.136 243.396 165.02C243.28 165.084 243.18 165.164 243.072 165.236ZM249.008 161.776C248.98 161.648 248.964 161.52 248.928 161.392C248.892 161.52 248.876 161.648 248.852 161.776C248.836 161.908 248.812 162.004 248.756 162.096C248.644 162.276 248.452 162.392 248.256 162.388C247.948 162.384 247.632 162.58 247.524 162.868C247.464 163.004 247.46 163.168 247.484 163.296C247.508 163.424 247.524 163.552 247.56 163.68C247.596 163.552 247.612 163.424 247.64 163.296C247.652 163.164 247.688 163.072 247.744 162.98C247.864 162.804 248.052 162.7 248.26 162.704C248.576 162.7 248.876 162.488 248.976 162.2C249.036 162.064 249.028 161.892 249.008 161.776ZM242.396 151.428C242.396 151.476 242.4 151.52 242.408 151.564C242.436 151.688 242.448 151.816 242.484 151.944C242.52 151.816 242.536 151.688 242.564 151.564C242.564 151.56 242.564 151.56 242.564 151.556C242.508 151.508 242.452 151.468 242.396 151.428ZM255.812 167.08C255.668 167.076 255.536 167.016 255.44 166.916C255.228 166.696 254.864 166.616 254.584 166.74C254.444 166.792 254.324 166.908 254.252 167.012C254.18 167.124 254.1 167.224 254.036 167.34C254.152 167.276 254.252 167.196 254.364 167.124C254.464 167.04 254.556 166.996 254.66 166.976C254.868 166.932 255.076 166.996 255.22 167.144C255.42 167.344 255.732 167.412 255.992 167.332C255.936 167.252 255.876 167.168 255.812 167.08ZM242.788 157.7C242.656 157.684 242.56 157.652 242.468 157.596C242.292 157.476 242.192 157.288 242.196 157.08C242.192 156.76 241.98 156.46 241.692 156.36C241.552 156.304 241.384 156.308 241.264 156.332C241.136 156.36 241.008 156.376 240.88 156.412C241.008 156.444 241.136 156.46 241.264 156.488C241.4 156.504 241.492 156.528 241.588 156.584C241.768 156.696 241.88 156.888 241.88 157.084C241.876 157.388 242.072 157.708 242.36 157.816C242.496 157.876 242.66 157.88 242.788 157.856C242.912 157.828 243.04 157.816 243.168 157.78C243.04 157.744 242.912 157.728 242.788 157.7ZM251.444 170.864C251.312 170.848 251.22 170.816 251.128 170.756C250.952 170.64 250.848 170.452 250.852 170.24C250.848 169.924 250.636 169.624 250.348 169.524C250.212 169.468 250.04 169.472 249.924 169.496C249.796 169.524 249.668 169.536 249.54 169.572C249.668 169.608 249.796 169.624 249.924 169.652C250.056 169.664 250.152 169.692 250.244 169.748C250.424 169.856 250.54 170.048 250.536 170.248C250.532 170.552 250.728 170.868 251.016 170.976C251.152 171.04 251.316 171.044 251.444 171.02C251.572 170.992 251.7 170.976 251.828 170.94C251.7 170.904 251.572 170.888 251.444 170.864Z" fill="white"/>
<path d="M241.751 172.074C241.65 172.073 240.988 171.957 240.985 171.957C240.938 171.71 239.864 167.828 239.582 166.983C239.007 165.262 238.331 163.569 237.679 161.876C237.658 161.822 237.576 161.846 237.592 161.902C238.017 163.359 238.416 164.826 238.852 166.279C238.72 166.073 238.59 165.866 238.466 165.655C238.211 165.224 237.988 164.776 237.75 164.336C237.729 164.296 237.667 164.326 237.68 164.368C237.866 164.979 238.172 165.558 238.509 166.099C238.654 166.332 238.823 166.552 238.998 166.764C239.036 166.884 239.071 167.006 239.108 167.126C239.376 167.976 240.754 172.179 240.824 172.184C240.841 172.185 241.521 172.2 241.732 172.201C241.784 172.201 241.803 172.074 241.751 172.074Z" fill="#263238"/>
<path d="M256.749 169.116C252.691 168.813 248.605 168.793 244.53 168.854C243.377 168.871 242.224 168.915 241.073 168.987C241.041 168.989 241.034 169.036 241.069 169.038C243.099 169.146 245.132 169.172 247.166 169.209C249.205 169.247 251.247 169.268 253.287 169.249C254.439 169.237 255.59 169.227 256.742 169.193C256.792 169.191 256.8 169.119 256.749 169.116Z" fill="#263238"/>
<path d="M191.592 205.268H194.465V203.392H191.592V205.268Z" fill="#455A64"/>
<path d="M187.866 205.143H190.739V203.267H187.866V205.143Z" fill="#455A64"/>
<path d="M184.14 205.02H187.013V203.144H184.14V205.02Z" fill="#455A64"/>
<path d="M180.414 204.895H183.287V203.019H180.414V204.895Z" fill="#455A64"/>
<path d="M176.688 204.771H179.561V202.895H176.688V204.771Z" fill="#455A64"/>
<path d="M172.962 204.646H175.835V202.77H172.962V204.646Z" fill="#455A64"/>
<path d="M169.236 204.523H172.109V202.647H169.236V204.523Z" fill="#455A64"/>
<path d="M165.51 204.398H168.383V202.522H165.51V204.398Z" fill="#455A64"/>
<path d="M161.784 204.275H164.657V202.399H161.784V204.275Z" fill="#455A64"/>
<path d="M161.081 206.344H195.168V204.062L161.081 203.111V206.344Z" fill="#37474F"/>
<path d="M127.81 197.344H184.084L175.134 155.449H118.861L127.81 197.344Z" fill="#455A64"/>
<path d="M125.728 197.344H182.002L173.053 155.449H116.779L125.728 197.344Z" fill="#37474F"/>
<path d="M144.528 173.969C144.832 175.891 146.636 177.449 148.558 177.449C150.48 177.449 151.791 175.891 151.486 173.969C151.182 172.048 149.378 170.49 147.456 170.49C145.534 170.49 144.223 172.048 144.528 173.969Z" fill="#263238"/>
<path d="M141.644 208.285H169.321V206.135L141.644 205.24V208.285Z" fill="#455A64"/>
<path d="M134.119 208.282H148.979L157.928 184.807H143.068L134.119 208.282Z" fill="#455A64"/>
<path d="M131.673 208.282H146.533L155.482 184.807H140.623L131.673 208.282Z" fill="#263238"/>
<path d="M196.221 208.856C196.221 208.856 222.319 208.856 224.755 208.856C227.191 208.856 223.667 201.922 214.78 199.262C205.892 196.602 193.418 206.255 196.221 208.856Z" fill="#37474F"/>
<path d="M207.418 208.855C207.244 208.091 207.002 207.353 206.728 206.632C206.446 205.915 206.114 205.22 205.718 204.566C205.335 203.902 204.855 203.302 204.332 202.745L203.926 202.336L203.484 201.964C203.204 201.692 202.856 201.516 202.548 201.268C203.26 201.583 203.974 201.966 204.548 202.52C205.138 203.053 205.656 203.673 206.06 204.36C206.466 205.044 206.793 205.774 207.022 206.531C207.253 207.287 207.398 208.07 207.418 208.855Z" fill="#263238"/>
<path d="M204.037 202.258C203.646 202.468 203.254 202.669 202.872 202.889C202.485 203.098 202.102 203.313 201.724 203.539C200.972 203.991 200.223 204.446 199.516 204.958C198.803 205.46 198.128 206.013 197.527 206.636C197.228 206.949 196.956 207.287 196.73 207.656C196.494 208.019 196.321 208.423 196.22 208.855C196.231 208.41 196.372 207.972 196.558 207.563C196.758 207.157 197.014 206.783 197.296 206.433C197.868 205.735 198.561 205.153 199.285 204.633C200.014 204.117 200.782 203.663 201.579 203.27C202.375 202.877 203.19 202.522 204.037 202.258Z" fill="#263238"/>
<path d="M249.795 192.254L248.102 213.548H236.387L234.693 192.254H249.795Z" fill="#FFC727"/>
<path opacity="0.1" d="M249.795 192.254L248.102 213.548H236.387L234.693 192.254H249.795Z" fill="black"/>
<path d="M250.804 190.332H233.585V193.436H250.804V190.332Z" fill="#455A64"/>
<path d="M249.624 190.331H234.765L235.634 186.844H248.756L249.624 190.331Z" fill="#37474F"/>
<path d="M246.312 203.088C246.312 205.852 244.491 208.093 242.244 208.093C239.998 208.093 238.177 205.852 238.177 203.088C238.177 200.323 239.998 198.082 242.244 198.082C244.49 198.082 246.312 200.323 246.312 203.088Z" fill="white"/>
</svg>
